<svg width="14" height="16" viewBox="0 0 14 16" fill="none" xmlns="http://www.w3.org/2000/svg">
<path d="M7 3.5C7.96562 3.5 8.75 2.71562 8.75 1.75C8.75 0.784375 7.96562 0 7 0C6.03438 0 5.25 0.784375 5.25 1.75C5.25 2.71562 6.03438 3.5 7 3.5Z" fill="#0979FE"/>
<path d="M12.5002 3.52497L12.4846 3.52809L12.4721 3.53122C12.4408 3.54059 12.4096 3.54997 12.3783 3.55934C11.7971 3.73122 8.9752 4.52497 6.98457 4.52497C5.1377 4.52497 2.56895 3.83747 1.74707 3.6031C1.66582 3.57185 1.58145 3.54372 1.49707 3.52184C0.90332 3.36559 0.49707 3.96872 0.49707 4.51872C0.49707 5.0656 0.987695 5.32497 1.48145 5.51247V5.52184L4.45645 6.44997C4.75957 6.56559 4.84082 6.68434 4.88144 6.78747C5.00957 7.11872 4.90645 7.77497 4.87207 8.0031L4.69082 9.40935L3.6877 14.9187C3.68457 14.9343 3.68145 14.95 3.67832 14.9656L3.67207 15.0062C3.6002 15.5093 3.96895 16 4.67207 16C5.28457 16 5.55645 15.5781 5.67207 15.0031C5.67207 15.0031 6.54707 10.0781 6.98457 10.0781C7.42207 10.0781 8.32207 15.0031 8.32207 15.0031C8.44082 15.5781 8.70957 16 9.32207 16C10.0252 16 10.3971 15.5093 10.3221 15.0031C10.3158 14.9593 10.3064 14.9187 10.2971 14.875L9.28145 9.41559L9.1002 8.00934C8.96895 7.19059 9.0752 6.91872 9.10957 6.85622C9.10957 6.85622 9.1127 6.85309 9.1127 6.84997C9.14707 6.78747 9.3002 6.64684 9.65957 6.51247L12.4502 5.53747C12.4658 5.53434 12.4846 5.52809 12.5002 5.52184C13.0002 5.33434 13.5002 5.07497 13.5002 4.52497C13.5002 3.97497 13.0939 3.36872 12.5002 3.52497V3.52497Z" fill="#0979FE"/>
</svg>
