<svg width="16" height="16" viewBox="0 0 16 16" fill="none" xmlns="http://www.w3.org/2000/svg">
<path d="M8 0.000518799C3.58218 0.000518799 0 3.582 0 8.00017C0 12.4183 3.58183 15.9998 8 15.9998C12.4185 15.9998 16 12.4183 16 8.00017C16 3.582 12.4185 0.000518799 8 0.000518799ZM8 2.39251C9.46183 2.39251 10.6464 3.57743 10.6464 5.03856C10.6464 6.50004 9.46183 7.68461 8 7.68461C6.53887 7.68461 5.3543 6.50004 5.3543 5.03856C5.3543 3.57743 6.53887 2.39251 8 2.39251ZM7.99824 13.9083C6.54028 13.9083 5.20495 13.3773 4.175 12.4985C3.9241 12.2845 3.77932 11.9706 3.77932 11.6414C3.77932 10.1595 4.97865 8.97355 6.46086 8.97355H9.53984C11.0224 8.97355 12.2172 10.1595 12.2172 11.6414C12.2172 11.971 12.0731 12.2841 11.8218 12.4981C10.7922 13.3773 9.45656 13.9083 7.99824 13.9083Z" fill="#5956D6"/>
</svg>
