<svg width="27" height="27" viewBox="0 0 27 27" fill="none" xmlns="http://www.w3.org/2000/svg">
<g clip-path="url(#clip0_88_510)">
<path d="M22.669 4.33112C17.6037 -0.734152 9.39131 -0.734152 4.32604 4.33112C-0.275679 8.93283 -0.69637 16.1318 3.06312 21.209L2.06456 24.9355L5.79115 23.937C10.8683 27.6965 18.0673 27.2758 22.669 22.6741C27.7343 17.6088 27.7343 9.39639 22.669 4.33112Z" fill="#FFF1A0"/>
<path d="M9.97825 10.1098C9.20889 10.1175 8.64579 9.36974 8.88458 8.63835C9.12459 7.90315 9.54454 7.23413 10.1226 6.68199C11.0715 5.77581 12.3179 5.31009 13.6314 5.37052C14.779 5.42329 15.8847 5.92613 16.7449 6.78634C17.6051 7.64654 18.1079 8.75228 18.1607 9.89984C18.247 11.775 17.2202 13.5316 15.5448 14.3749C14.9256 14.6865 14.541 15.3008 14.541 15.978C14.541 16.6024 14.0348 17.1086 13.4104 17.1086H13.406C12.7816 17.1086 12.2754 16.6024 12.2754 15.978C12.2754 14.4397 13.1379 13.0499 14.5263 12.3512C15.4046 11.9092 15.9428 10.9879 15.8976 10.004C15.842 8.79684 14.7345 7.68925 13.5274 7.63368C12.8374 7.60178 12.1843 7.84584 11.6874 8.32047C11.3912 8.60334 11.1743 8.94484 11.0472 9.31997C10.8901 9.78358 10.4677 10.1049 9.97825 10.1098Z" fill="#FF7D95"/>
<path d="M13.4082 21.6397C14.0338 21.6397 14.541 21.1326 14.541 20.5069C14.541 19.8813 14.0338 19.3741 13.4082 19.3741C12.7826 19.3741 12.2754 19.8813 12.2754 20.5069C12.2754 21.1326 12.7826 21.6397 13.4082 21.6397Z" fill="#FF7D95"/>
<path d="M22.6691 4.85827C22.5304 4.85827 22.3944 4.80185 22.2963 4.70378C22.1983 4.60572 22.1418 4.46969 22.1418 4.33102C22.1418 4.19235 22.1983 4.05632 22.2963 3.95826C22.3944 3.86024 22.5304 3.80377 22.6691 3.80377C22.8078 3.80377 22.9438 3.86019 23.0419 3.95826C23.1399 4.05632 23.1963 4.19235 23.1963 4.33102C23.1963 4.47021 23.1399 4.60572 23.0419 4.70378C22.9438 4.80185 22.8078 4.85827 22.6691 4.85827Z" fill="black"/>
<path d="M13.4994 27C10.6998 27.0001 7.96405 26.1324 5.68455 24.5114L2.2007 25.4449C2.0187 25.4936 1.82462 25.4416 1.69138 25.3084C1.5582 25.1752 1.50616 24.9811 1.55493 24.7992L2.48842 21.3153C0.685339 18.7798 -0.185674 15.6793 0.0327645 12.5551C0.259534 9.31262 1.65168 6.25959 3.9528 3.95842C8.55905 -0.647781 15.7894 -1.31248 21.145 2.37799C21.3848 2.54323 21.4453 2.87149 21.28 3.11129C21.1148 3.35118 20.7865 3.41155 20.5467 3.24631C15.6101 -0.155489 8.94499 0.457595 4.69854 4.70405C0.374474 9.02812 -0.146605 15.9888 3.4865 20.8953C3.58214 21.0244 3.61367 21.1903 3.57207 21.3455L2.80988 24.19L5.65433 23.4278C5.80956 23.3862 5.97538 23.4177 6.10455 23.5133C11.0111 27.1465 17.9718 26.6254 22.2958 22.3013C26.5424 18.0548 27.1553 11.3896 23.7534 6.45288C23.5881 6.21309 23.6486 5.88477 23.8884 5.71953C24.1281 5.55434 24.4565 5.61477 24.6217 5.85451C28.3124 11.2102 27.6479 18.4407 23.0415 23.047C20.7403 25.3482 17.6873 26.7403 14.4448 26.9671C14.1294 26.9891 13.8138 27 13.4994 27Z" fill="black"/>
<path d="M13.4104 17.6358C12.4919 17.6358 11.7482 16.8921 11.7482 15.978C11.7482 14.2392 12.7219 12.669 14.2893 11.8802C14.982 11.5315 15.4066 10.8046 15.3709 10.0281C15.3279 9.09355 14.4376 8.20334 13.5031 8.16032C12.9593 8.13564 12.4434 8.3274 12.0515 8.7017C11.8178 8.92493 11.6479 9.18988 11.5465 9.48909C11.3163 10.1687 10.6882 10.63 9.98351 10.637V10.637C9.97797 10.6371 9.97244 10.6371 9.9669 10.6371C9.4376 10.6371 8.93592 10.3829 8.62215 9.95491C8.30465 9.52183 8.2176 8.98235 8.38331 8.47472C8.65042 7.65648 9.12594 6.90478 9.75837 6.30072C10.8124 5.29409 12.196 4.77702 13.6556 4.84382C14.9347 4.90261 16.1643 5.46007 17.1177 6.41349C18.0711 7.36692 18.6285 8.59641 18.6874 9.87561C18.7832 11.9583 17.6427 13.9093 15.7818 14.8459C15.3416 15.0674 15.0681 15.5012 15.0681 15.978C15.0682 16.8921 14.3246 17.6358 13.4104 17.6358ZM13.4068 7.10361C13.455 7.10361 13.5032 7.10472 13.5517 7.10698C15.0402 7.17542 16.3558 8.49096 16.4242 9.97964C16.479 11.171 15.8271 12.2867 14.7634 12.8221C13.5539 13.4307 12.8027 14.64 12.8027 15.9779C12.8027 16.3106 13.0733 16.5813 13.406 16.5813C13.7431 16.5813 14.0137 16.3106 14.0137 15.9779C14.0137 15.1003 14.5096 14.3056 15.3078 13.9038C16.7977 13.154 17.7107 11.5918 17.634 9.92402C17.5873 8.90806 17.1392 7.92612 16.3721 7.15913C15.605 6.39209 14.6231 5.94393 13.6072 5.89716C12.4387 5.84412 11.3304 6.25753 10.4867 7.06327C9.97254 7.55435 9.6021 8.13933 9.38582 8.80198C9.32677 8.98272 9.35846 9.17569 9.47261 9.33144C9.58976 9.49125 9.7695 9.58257 9.96653 9.58257C9.96869 9.58257 9.97043 9.58146 9.97302 9.58252C10.2302 9.57999 10.4611 9.40647 10.5477 9.15081C10.702 8.69526 10.9701 8.27631 11.3231 7.93919C11.8905 7.39729 12.6257 7.10361 13.4068 7.10361Z" fill="black"/>
<path d="M13.4081 22.1669C12.4927 22.1669 11.748 21.4222 11.748 20.5069C11.748 19.5915 12.4927 18.8469 13.4081 18.8469C14.3234 18.8469 15.0681 19.5915 15.0681 20.5069C15.0681 21.4222 14.3234 22.1669 13.4081 22.1669ZM13.4081 19.9014C13.0742 19.9014 12.8025 20.173 12.8025 20.5069C12.8025 20.8408 13.0742 21.1124 13.4081 21.1124C13.742 21.1124 14.0136 20.8408 14.0136 20.5069C14.0136 20.173 13.742 19.9014 13.4081 19.9014Z" fill="black"/>
</g>
<defs>
<clipPath id="clip0_88_510">
<rect width="27" height="27" fill="white"/>
</clipPath>
</defs>
</svg>
