<svg width="16" height="16" viewBox="0 0 16 16" fill="none" xmlns="http://www.w3.org/2000/svg">
<path d="M7 4.99976V3.99976H1C0.449 3.99976 0 4.44876 0 4.99976V6.99976H7.211C7.072 6.38876 7 5.73076 7 4.99976Z" fill="#3200FA"/>
<path d="M15.959 8.99976C15.277 10.0508 14.237 10.9448 12.747 11.8008C12.518 11.9318 12.26 11.9998 12 11.9998C11.74 11.9998 11.482 11.9318 11.256 11.8028C9.766 10.9448 8.726 10.0498 8.043 8.99976H0V13.9998C0 14.5518 0.449 14.9998 1 14.9998H15C15.552 14.9998 16 14.5518 16 13.9998V8.99976H15.959ZM4.5 11.9998H2.5C2.224 11.9998 2 11.7758 2 11.4998C2 11.2238 2.224 10.9998 2.5 10.9998H4.5C4.776 10.9998 5 11.2238 5 11.4998C5 11.7758 4.776 11.9998 4.5 11.9998Z" fill="#3200FA"/>
<path d="M15.697 2.54074L12.197 1.04074C12.07 0.986744 11.929 0.986744 11.802 1.04074L8.302 2.54074C8.119 2.61874 8 2.79974 8 2.99974V4.99974C8 7.75074 9.017 9.35874 11.751 10.9337C11.828 10.9777 11.914 10.9997 12 10.9997C12.086 10.9997 12.172 10.9777 12.249 10.9337C14.983 9.36274 16 7.75474 16 4.99974V2.99974C16 2.79974 15.881 2.61874 15.697 2.54074ZM13.891 4.81274L11.891 7.31274C11.795 7.43074 11.651 7.49974 11.5 7.49974C11.493 7.49974 11.485 7.49974 11.479 7.49974C11.32 7.49274 11.173 7.41074 11.084 7.27774L10.084 5.77774C9.931 5.54774 9.993 5.23774 10.223 5.08474C10.451 4.93274 10.762 4.99274 10.916 5.22374L11.537 6.15474L13.109 4.18874C13.282 3.97374 13.597 3.93974 13.812 4.11074C14.028 4.28174 14.062 4.59674 13.891 4.81274Z" fill="#3200FA"/>
</svg>
