<svg width="10" height="12" viewBox="0 0 10 12" fill="none" xmlns="http://www.w3.org/2000/svg">
<path d="M0.369215 7.131C0.425718 7.189 0.639064 7.437 0.837797 7.641C2.00292 8.924 5.04238 11.024 6.63322 11.665C6.87482 11.768 7.48563 11.986 7.81198 12C8.12469 12 8.42279 11.928 8.70726 11.782C9.06186 11.578 9.34632 11.257 9.50219 10.878C9.60253 10.615 9.7584 9.828 9.7584 9.814C9.91427 8.953 10 7.554 10 6.008C10 4.535 9.91427 3.193 9.78665 2.319C9.77204 2.305 9.61617 1.327 9.44569 0.992C9.13298 0.38 8.52216 -1.29197e-07 7.86849 -1.86343e-07L7.81198 -1.91283e-07C7.38626 0.0149998 6.49099 0.395 6.49099 0.409C4.98587 1.051 2.01656 3.048 0.823186 4.375C0.823186 4.375 0.487092 4.716 0.340964 4.929C0.113005 5.235 -4.90791e-07 5.614 -5.23925e-07 5.993C-5.60905e-07 6.416 0.127617 6.81 0.369215 7.131Z" fill="#333333" fill-opacity="0.65"/>
</svg>
