<svg width="26" height="39" viewBox="0 0 26 39" fill="none" xmlns="http://www.w3.org/2000/svg">
<path d="M12.754 38.2162C11.6767 38.2162 10.8032 37.3428 10.8032 36.2654V22.5953H14.7048V36.2653C14.7048 37.3428 13.8314 38.2162 12.754 38.2162Z" fill="#E19974"/>
<path d="M14.705 22.5953V36.2656C14.705 37.3431 13.8314 38.2157 12.7539 38.2157C12.4017 38.2157 12.0715 38.1227 11.7861 37.9586C12.3724 37.6232 12.7684 36.9909 12.7684 36.2657V22.5954H14.705V22.5953Z" fill="#DC8758"/>
<path d="M12.7538 24.724C19.3648 24.724 24.724 19.3648 24.724 12.7539C24.724 6.14297 19.3648 0.783752 12.7538 0.783752C6.14291 0.783752 0.783691 6.14297 0.783691 12.7539C0.783691 19.3648 6.14291 24.724 12.7538 24.724Z" fill="#0ED082"/>
<path d="M24.7239 12.7542C24.7239 19.3653 19.3649 24.7243 12.7538 24.7243C11.1967 24.7243 9.70957 24.4275 8.34473 23.8862C9.09504 24.0345 9.8705 24.1119 10.6637 24.1119C17.2748 24.1119 22.6338 18.7529 22.6338 12.1419C22.6338 7.08802 19.5017 2.76576 15.0728 1.01007C20.574 2.08848 24.7239 6.93644 24.7239 12.7542Z" fill="#0ED082"/>
<path d="M12.7539 0C5.72139 0 0 5.72139 0 12.754C0 18.8481 4.2966 23.9566 10.0193 25.2118V27.3784C10.0193 27.8113 10.3702 28.1622 10.8031 28.1622C11.236 28.1622 11.5869 27.8112 11.5869 27.3784V25.454C11.9714 25.489 12.3605 25.5079 12.7539 25.5079C13.1474 25.5079 13.5364 25.489 13.9209 25.454V36.2654C13.9209 36.9089 13.3974 37.4325 12.7539 37.4325C12.1105 37.4325 11.5869 36.9089 11.5869 36.2654V31.0081C11.5869 30.5752 11.236 30.2244 10.8031 30.2244C10.3702 30.2244 10.0193 30.5753 10.0193 31.0081V36.2654C10.0193 37.7733 11.246 39 12.7539 39C14.2618 39 15.4885 37.7733 15.4885 36.2654V25.2118C21.2112 23.9566 25.5078 18.8481 25.5078 12.754C25.5078 5.72139 19.7864 0 12.7539 0ZM12.7539 23.9404C6.58578 23.9404 1.56764 18.9223 1.56764 12.754C1.56764 6.58578 6.58578 1.56764 12.7539 1.56764C18.922 1.56764 23.9403 6.58578 23.9403 12.754C23.9402 18.9221 18.922 23.9404 12.7539 23.9404Z" fill="black"/>
<path d="M18.6132 7.20624C18.256 6.96199 17.7681 7.05331 17.5238 7.41049L11.4151 16.3386L7.94932 12.0064C7.67899 11.6684 7.1857 11.6135 6.84763 11.884C6.50967 12.1545 6.45481 12.6476 6.72525 12.9857L10.8523 18.1445C11.0013 18.3308 11.2267 18.4387 11.4643 18.4387C11.474 18.4387 11.4839 18.4385 11.4936 18.4382C11.7418 18.429 11.9709 18.3026 12.1112 18.0977L18.8176 8.29597C19.062 7.93848 18.9705 7.4507 18.6132 7.20624Z" fill="black"/>
</svg>
