<svg width="25" height="22" viewBox="0 0 25 22" fill="none" xmlns="http://www.w3.org/2000/svg">
<path d="M2.34375 0C1.0498 0 0 1.0498 0 2.34375V19.5312C0 20.8252 1.0498 21.875 2.34375 21.875H22.6562C23.9502 21.875 25 20.8252 25 19.5312V2.34375C25 1.0498 23.9502 0 22.6562 0H2.34375ZM2.34375 1.5625H7.51953C7.68066 1.5625 7.8125 1.69434 7.8125 1.85547V2.83203C7.8125 2.99316 7.68066 3.125 7.51953 3.125H1.85547C1.69434 3.125 1.5625 2.99316 1.5625 2.83203V2.34375C1.5625 1.91406 1.91406 1.5625 2.34375 1.5625ZM23.1445 6.25H1.85547C1.69434 6.25 1.5625 6.11816 1.5625 5.95703V4.19922C1.5625 4.03809 1.69434 3.90625 1.85547 3.90625H8.59375L10.0684 1.69434C10.1221 1.61133 10.2148 1.5625 10.3125 1.5625H22.6562C23.0859 1.5625 23.4375 1.91406 23.4375 2.34375V5.95703C23.4375 6.11816 23.3057 6.25 23.1445 6.25ZM12.5 19.1406C9.26758 19.1406 6.64062 16.5137 6.64062 13.2812C6.64062 10.0488 9.26758 7.42188 12.5 7.42188C15.7324 7.42188 18.3594 10.0488 18.3594 13.2812C18.3594 16.5137 15.7324 19.1406 12.5 19.1406ZM12.5 8.98438C10.1318 8.98438 8.20312 10.9131 8.20312 13.2812C8.20312 15.6494 10.1318 17.5781 12.5 17.5781C14.8682 17.5781 16.7969 15.6494 16.7969 13.2812C16.7969 10.9131 14.8682 8.98438 12.5 8.98438ZM10.1562 14.0625C9.72656 14.0625 9.375 13.7109 9.375 13.2812C9.375 11.5576 10.7764 10.1562 12.5 10.1562C12.9297 10.1562 13.2812 10.5078 13.2812 10.9375C13.2812 11.3672 12.9297 11.7188 12.5 11.7188C11.6406 11.7188 10.9375 12.4219 10.9375 13.2812C10.9375 13.7109 10.5859 14.0625 10.1562 14.0625Z" fill="#FCFCFC"/>
</svg>
