<svg width="12" height="10" viewBox="0 0 12 10" fill="none" xmlns="http://www.w3.org/2000/svg">
<path d="M4.869 0.369216C4.811 0.425718 4.563 0.639065 4.359 0.837798C3.076 2.00292 0.976 5.04238 0.335 6.63322C0.232 6.87482 0.014 7.48563 2.60918e-08 7.81198C2.23628e-08 8.1247 0.0720005 8.4228 0.218 8.70726C0.422001 9.06186 0.743 9.34632 1.122 9.50219C1.385 9.60253 2.172 9.7584 2.186 9.7584C3.047 9.91427 4.446 10 5.992 10C7.465 10 8.807 9.91427 9.681 9.78665C9.695 9.77204 10.673 9.61617 11.008 9.44569C11.62 9.13298 12 8.52216 12 7.86849L12 7.81198C11.985 7.38626 11.605 6.49099 11.591 6.49099C10.949 4.98587 8.952 2.01656 7.625 0.823186C7.625 0.823186 7.284 0.487092 7.071 0.340964C6.765 0.113006 6.386 -6.69463e-08 6.007 -7.14658e-08C5.584 -7.651e-08 5.19 0.127618 4.869 0.369216Z" fill="#333333" fill-opacity="0.65"/>
</svg>
