<svg width="34" height="34" viewBox="0 0 34 34" fill="none" xmlns="http://www.w3.org/2000/svg">
<path d="M29.75 32.2292H12.75C12.1692 32.2292 11.6875 31.7475 11.6875 31.1667C11.6875 30.5859 12.1692 30.1042 12.75 30.1042H29.75C30.3308 30.1042 30.8125 30.5859 30.8125 31.1667C30.8125 31.7475 30.3308 32.2292 29.75 32.2292Z" fill="#292D32"/>
<path d="M12.0982 32.1725C10.6815 32.1725 9.33574 31.62 8.34408 30.6142L3.37156 25.6417C1.30323 23.5733 1.30323 20.2017 3.37156 18.1333L18.1474 3.3575C20.1449 1.36 23.6582 1.36 25.6557 3.3575L30.6282 8.32999C32.6965 10.3983 32.6965 13.77 30.6282 15.8383L15.8524 30.6142C14.8607 31.6342 13.529 32.1725 12.0982 32.1725ZM4.87323 24.1542L9.84574 29.1267C11.0499 30.3308 13.1607 30.3308 14.3507 29.1267L29.1266 14.3508C30.3732 13.1042 30.3732 11.0925 29.1266 9.84583L24.154 4.87333C22.964 3.68333 20.8532 3.66917 19.649 4.87333L4.87323 19.6492C3.62656 20.8817 3.62656 22.9075 4.87323 24.1542Z" fill="#292D32"/>
<path d="M21.0654 24.9759C20.7963 24.9759 20.5271 24.8767 20.3146 24.6642L9.33547 13.685C8.92464 13.2742 8.92464 12.5942 9.33547 12.1834C9.7463 11.7725 10.4263 11.7725 10.8371 12.1834L21.8163 23.1625C22.2271 23.5734 22.2271 24.2534 21.8163 24.6642C21.6038 24.8767 21.3346 24.9759 21.0654 24.9759Z" fill="#292D32"/>
<path d="M4.98673 26.0808C4.71757 26.0808 4.44836 25.9817 4.23586 25.7692C3.82503 25.3583 3.82503 24.6783 4.23586 24.2675L12.2542 16.2492C12.6651 15.8383 13.3451 15.8383 13.7559 16.2492C14.1667 16.66 14.1667 17.34 13.7559 17.7508L5.73752 25.7692C5.52502 25.9817 5.2559 26.0808 4.98673 26.0808Z" fill="#292D32"/>
<path d="M8.98185 30.09C8.71268 30.09 8.44348 29.9909 8.23098 29.7784C7.82014 29.3675 7.82014 28.6875 8.23098 28.2767L16.2493 20.2584C16.6601 19.8475 17.3402 19.8475 17.751 20.2584C18.1619 20.6692 18.1619 21.3492 17.751 21.76L9.73264 29.7784C9.53431 29.9767 9.26518 30.09 8.98185 30.09Z" fill="#292D32"/>
</svg>
