<svg width="12" height="24" viewBox="0 0 12 24" fill="none" xmlns="http://www.w3.org/2000/svg">
<path fill-rule="evenodd" clip-rule="evenodd" d="M11.0708 4.10804C10.2484 4.10804 9.43453 4.10483 8.62079 4.10894C7.73499 4.11344 7.37781 4.46302 7.3635 5.34851C7.35389 5.94468 7.3617 6.54126 7.3617 7.20188C8.65412 7.20188 9.89419 7.20188 11.1821 7.20188C11.0319 8.82455 10.888 10.3781 10.7391 11.9857C9.58145 11.9857 8.42273 11.9857 7.20608 11.9857C7.20608 16.0124 7.20608 19.9858 7.20608 24C5.57729 24 4.00665 24 2.37927 24C2.37927 20.0192 2.37927 16.0452 2.37927 12.0282C1.56393 12.0282 0.803633 12.0282 0 12.0282C0 10.4153 0 8.84527 0 7.21939C0.762 7.21939 1.5203 7.21939 2.35635 7.21939C2.35635 6.64003 2.33684 6.11232 2.36126 5.5868C2.39218 4.92318 2.38578 4.24555 2.52368 3.60144C2.97864 1.47827 4.52826 0.143918 6.71389 0.0354321C8.14301 -0.0355237 9.57864 0.0220213 11.0707 0.0220213C11.0708 1.36898 11.0708 2.71444 11.0708 4.10804Z" fill="#4385F4"/>
</svg>
