<svg width="29" height="29" viewBox="0 0 29 29" fill="none" xmlns="http://www.w3.org/2000/svg">
<path fill-rule="evenodd" clip-rule="evenodd" d="M1.49512 8.07462C1.98627 7.25037 2.40099 6.36703 2.98227 5.61202C5.35116 2.53678 8.48486 0.691363 12.3275 0.153514C16.5761 -0.440831 20.3593 0.698542 23.6632 3.43383C23.7131 3.47531 23.7771 3.50047 23.8056 3.51647C22.384 4.93571 21.0056 6.31184 19.6308 7.68405C19.1413 7.38982 18.6266 7.03094 18.0711 6.75401C13.6419 4.5471 8.21871 6.67923 6.45788 11.3056C6.41184 11.4265 6.35273 11.5421 6.2995 11.66C5.34496 10.9409 4.3927 10.2198 3.43554 9.50465C2.79221 9.02362 2.14204 8.55075 1.49512 8.07462Z" fill="#EA4338"/>
<path fill-rule="evenodd" clip-rule="evenodd" d="M6.29479 17.0483C6.81598 18.447 7.57558 19.684 8.70287 20.6856C10.6753 22.4383 12.9874 23.063 15.5767 22.7952C16.8777 22.6607 18.0883 22.2534 19.2146 21.5902C19.2894 21.6774 19.3514 21.7806 19.4403 21.8485C20.162 22.3988 20.8957 22.9327 21.6116 23.4898C22.3173 24.0394 23.0063 24.6102 23.7022 25.1716C22.6611 26.183 21.46 26.9599 20.1319 27.5287C14.1297 30.0994 7.459 28.5058 3.26593 23.5006C2.54521 22.6401 1.9058 21.7198 1.48682 20.6657C1.60699 20.5912 1.7337 20.5262 1.84571 20.441C3.33026 19.3121 4.81219 18.1799 6.29479 17.0483Z" fill="#36A854"/>
<path fill-rule="evenodd" clip-rule="evenodd" d="M23.7022 25.1713C23.006 24.6096 22.3172 24.0388 21.6115 23.4895C20.8957 22.9324 20.1619 22.3982 19.4402 21.8482C19.3514 21.7803 19.289 21.6771 19.2146 21.5899C20.4356 20.72 21.3761 19.6335 21.8375 18.1799C21.9195 17.9216 21.9877 17.6588 22.0798 17.3368C19.4977 17.3368 16.9623 17.3368 14.4023 17.3368C14.4023 15.4626 14.4023 13.642 14.4023 11.76C14.5548 11.76 14.7051 11.76 14.855 11.76C18.969 11.76 23.0824 11.7591 27.1961 11.761C27.8499 11.7617 27.7941 11.6784 27.8826 12.3201C28.5517 17.1683 27.3937 21.4505 23.9135 25.0022C23.8501 25.0658 23.7727 25.1155 23.7022 25.1713Z" fill="#4385F4"/>
<path fill-rule="evenodd" clip-rule="evenodd" d="M6.29452 17.048C4.81192 18.1795 3.32966 19.3117 1.84544 20.441C1.73375 20.5262 1.60672 20.5912 1.48654 20.6657C1.16912 19.8594 0.776922 19.0733 0.547675 18.2426C-0.393153 14.8375 -0.118531 11.5134 1.3461 8.2935C1.38203 8.21414 1.44506 8.1472 1.49535 8.07471C2.14227 8.55084 2.79214 9.02369 3.43579 9.50472C4.39295 10.2199 5.34519 10.941 6.29974 11.66C5.91407 12.9784 5.77561 14.3179 5.99179 15.68C6.06429 16.1402 6.19197 16.5921 6.29452 17.048Z" fill="#F8BC07"/>
</svg>
