<svg width="16" height="16" viewBox="0 0 16 16" fill="none" xmlns="http://www.w3.org/2000/svg">
<g clip-path="url(#clip0_213_808)">
<path d="M9.99989 8.66708C9.63125 8.66708 9.33328 8.96579 9.33328 9.3337V12.0004C9.33328 12.3677 9.03457 12.667 8.66653 12.667H6.66656V2.66715C6.66656 2.09782 6.30389 1.58916 5.75861 1.39983L5.56122 1.33379H8.66653C9.03457 1.33379 9.33328 1.6331 9.33328 2.00053V4.00051C9.33328 4.36842 9.63125 4.66713 9.99989 4.66713C10.3685 4.66713 10.6665 4.36842 10.6665 4.00051V2.00053C10.6665 0.897879 9.76918 0.000549316 8.66653 0.000549316H1.49998C1.47459 0.000549316 1.45335 0.0119018 1.4287 0.0151976C1.39659 0.0125121 1.36595 0.000549316 1.33336 0.000549316C0.598016 0.000549316 0 0.598443 0 1.33379V13.3337C0 13.903 0.362667 14.4117 0.907949 14.601L4.91999 15.9384C5.05598 15.9804 5.19123 16.0004 5.33332 16.0004C6.06866 16.0004 6.66656 15.4024 6.66656 14.667V14.0004H8.66653C9.76918 14.0004 10.6665 13.1031 10.6665 12.0004V9.3337C10.6665 8.96579 10.3685 8.66708 9.99989 8.66708Z" fill="#0479FA"/>
<path d="M15.805 6.19542L13.1383 3.52883C12.9477 3.33815 12.661 3.28078 12.4117 3.38405C12.163 3.48744 12.0003 3.73073 12.0003 4.00013V6.00011H9.33373C8.9657 6.00011 8.66699 6.29869 8.66699 6.66673C8.66699 7.03477 8.9657 7.33335 9.33373 7.33335H12.0003V9.33333C12.0003 9.60274 12.163 9.84602 12.4117 9.94941C12.661 10.0527 12.9477 9.99531 13.1383 9.80476L15.805 7.13804C16.0656 6.87742 16.0656 6.45604 15.805 6.19542Z" fill="#0479FA"/>
</g>
<defs>
<clipPath id="clip0_213_808">
<rect width="16" height="16" fill="white"/>
</clipPath>
</defs>
</svg>
