<svg width="175" height="46" viewBox="0 0 175 46" fill="none" xmlns="http://www.w3.org/2000/svg">
<path d="M14.4075 34.6692C13.8202 32.5824 13.3829 30.404 13.0996 28.1339C13.058 27.8507 13.0288 27.6091 13.008 27.405C12.9872 27.2009 12.9663 27.0926 12.9455 27.0718C12.9455 27.051 12.9247 26.7761 12.883 26.2513C12.8414 25.7264 12.7914 25.0767 12.7289 24.3061C12.6456 23.1107 12.6081 21.8944 12.6081 20.6574C12.6081 17.6167 12.8414 14.4678 13.3079 11.2065C13.5911 9.24048 13.9452 7.44944 14.37 5.825C14.7949 4.20473 15.1989 3.18008 15.5863 2.75523C15.6654 2.65527 15.7071 2.59279 15.7071 2.57196V2.5428C15.7071 2.52197 15.6654 2.50115 15.5863 2.48032C15.4238 2.41785 15.1614 2.3637 14.7949 2.31372C14.4283 2.26374 14.0451 2.21791 13.6411 2.17626C13.2371 2.13461 12.9122 2.11378 12.6706 2.11378C11.192 2.11378 9.67998 2.34288 8.14301 2.79689C6.60188 3.2509 5.21486 3.87567 3.97779 4.66707C3.29053 5.13357 2.60326 5.72503 1.9285 6.44561C1.24957 7.1662 0.858036 7.70767 0.758071 8.07005C0.716418 8.19084 0.66227 8.26165 0.591461 8.28248C0.520652 8.30331 0.474834 8.31164 0.454008 8.31164C0.354043 8.31164 0.241583 8.26998 0.120792 8.19084C0.0416526 8.12837 0 8.08255 0 8.0534C0 8.02424 0 7.99924 0 7.97841C0 7.91594 0.0208268 7.84514 0.062479 7.766C0.183271 7.52441 0.45401 7.14954 0.866367 6.64138C1.28289 6.13739 1.66192 5.70837 2.00764 5.36682C2.6949 4.69622 3.61958 4.07978 4.77335 3.5133C7.08088 2.33871 9.49255 1.72225 12.0083 1.65977C12.3124 1.63895 12.6165 1.63062 12.9205 1.63062C14.32 1.63062 15.6154 1.79306 16.8108 2.11795C17.4981 2.2804 18.2104 2.51365 18.9393 2.81771C19.6682 3.12177 20.722 3.6091 22.1007 4.27554C24.3291 5.37099 26.0618 6.1249 27.2989 6.54142C28.5359 6.95794 29.7814 7.17454 31.0351 7.19536C31.2392 7.21619 31.4391 7.22451 31.6432 7.22451C33.9549 7.22451 35.4627 6.45395 36.1708 4.91281C36.2499 4.70872 36.3291 4.57543 36.3999 4.50462C36.4707 4.43381 36.5582 4.39633 36.6581 4.39633H36.6873C36.8706 4.39633 36.9622 4.48797 36.9622 4.67124C36.9622 4.79203 36.933 4.93364 36.8706 5.09609C36.5457 6.08741 35.7668 6.78717 34.5297 7.19119C34.2256 7.29116 33.9757 7.37029 33.7841 7.42028C33.5925 7.47026 33.3801 7.51191 33.1469 7.54107C32.9136 7.57023 32.6054 7.59521 32.218 7.61604C31.8348 7.65769 31.4474 7.67853 31.0642 7.67853C29.3607 7.67853 27.5571 7.34531 25.6536 6.67471C24.9455 6.4123 24.2291 6.12073 23.5127 5.80834C22.7963 5.49594 21.8549 5.06276 20.7012 4.51711C20.2138 4.27553 19.8056 4.07144 19.4683 3.90899C19.135 3.74655 18.8643 3.62159 18.6644 3.52996C18.4603 3.43832 18.3062 3.36752 18.1937 3.31754C18.0812 3.26756 18.0063 3.2384 17.9646 3.2259C17.923 3.21341 17.8855 3.20924 17.8438 3.20924C17.7813 3.23007 17.7522 3.45082 17.7522 3.87983C17.7522 4.0631 17.748 4.23804 17.7355 4.41298C17.723 4.58376 17.7022 4.8295 17.6606 5.1419C17.6189 5.45429 17.5564 5.89998 17.4648 6.47894C17.3732 7.05791 17.2482 7.84097 17.0857 8.83646C16.965 9.60703 16.8442 10.4484 16.7192 11.3606C16.5984 12.2728 16.5068 13.0017 16.4443 13.5473C16.4235 13.8306 16.3943 14.1305 16.3527 14.4429C16.311 14.7552 16.2819 15.026 16.261 15.2467C16.1611 16.0173 16.0694 17.1961 15.9861 18.7872C15.9028 20.3783 15.8653 21.7195 15.8653 22.815C15.8653 27.2343 16.3318 31.3662 17.2649 35.2148C18.1354 38.4762 19.1934 40.6088 20.4388 41.6126C21.6842 42.6164 22.7963 43.1163 23.7668 43.1163C24.4332 43.1163 25.1121 42.9455 25.8036 42.5998C27.5071 41.7292 29.0066 39.7424 30.302 36.6435C30.5644 35.9729 30.881 35.1232 31.2433 34.0902C31.6099 33.0572 31.8931 32.1867 32.0931 31.4786C32.4971 30.0999 32.8011 29.0461 33.0052 28.3172C33.0261 28.2756 33.0344 28.2464 33.0344 28.2256C33.276 27.3759 33.4592 26.7802 33.58 26.447C33.7008 26.1138 33.8133 25.9347 33.9133 25.9139C33.9757 25.8931 34.034 25.8847 34.0965 25.8847C34.2798 25.8847 34.3714 25.9847 34.3714 26.1888C34.3714 26.2513 34.3589 26.3221 34.3423 26.4012C34.3214 26.4845 34.2881 26.6136 34.2381 26.7969C34.1882 26.9802 34.1382 27.1676 34.084 27.3592C34.034 27.5508 33.9966 27.6883 33.9799 27.7716C33.9382 27.9132 33.8883 28.084 33.8258 28.2881C33.7633 28.4921 33.7133 28.6838 33.6758 28.867C33.6342 28.9878 33.5925 29.1211 33.555 29.2627C33.3301 30.0749 33.1385 30.783 32.9761 31.3912C32.9344 31.5328 32.8636 31.7702 32.7637 32.1034C32.6637 32.4366 32.5596 32.7865 32.4596 33.153C32.0139 34.6109 31.5682 35.8896 31.1226 36.9809C30.0063 39.6758 28.7609 41.5001 27.3864 42.4498C26.0077 43.4037 24.6998 43.8785 23.4669 43.8785C23.0628 43.8785 22.6547 43.8368 22.2506 43.7577C20.5887 43.4328 19.0601 42.4873 17.6606 40.917C16.261 39.3467 15.1739 37.2641 14.4075 34.6692Z" fill="black"/>
<path d="M33.7335 32.8155C33.4711 32.4906 33.2587 32.1491 33.0962 31.7826C32.8338 31.2369 32.6506 30.7038 32.5506 30.1873C32.4506 29.6708 32.3965 29.0585 32.3965 28.3504V28.2296C32.3965 26.1845 32.9046 24.6725 33.9168 23.702C34.729 22.9939 35.5579 22.6399 36.4076 22.6399C36.6908 22.6399 36.9741 22.6815 37.2573 22.7607C38.4111 23.0439 39.2649 23.8353 39.8106 25.1307C39.8897 25.2931 40.0938 25.4556 40.4187 25.618C41.7557 26.2261 42.9095 26.601 43.8842 26.7426C44.8547 26.8843 45.5336 26.9551 45.921 26.9551C47.0164 26.9551 48.0161 26.7135 48.9283 26.2262C49.1324 26.1054 49.3031 26.0221 49.4448 25.9846C49.5864 25.9429 49.7363 25.9221 49.8988 25.9221C50.1612 25.9429 50.2945 26.0054 50.2945 26.1054C50.2945 26.2262 50.0612 26.4177 49.5947 26.6843C48.6409 27.1925 47.8411 27.4507 47.1955 27.4591C46.5458 27.4674 46.1709 27.4757 46.0709 27.4757C44.9546 27.4757 43.8925 27.3758 42.8804 27.1717C41.7474 26.9467 40.8227 26.7052 40.1146 26.4427L40.0855 28.0547C40.0647 28.9044 39.973 29.7041 39.8106 30.4539C39.6481 31.2036 39.3358 31.9533 38.8692 32.7031C38.1986 33.6736 37.3906 34.1609 36.4368 34.1609H36.3743C35.3871 34.1526 34.5041 33.7069 33.7335 32.8155ZM37.8987 32.5406C38.4069 31.8534 38.7443 31.1411 38.9151 30.4122C39.0858 29.6833 39.1733 28.9044 39.1733 28.0713C39.1733 27.4632 39.1566 27.0176 39.1275 26.7343C39.0983 26.4511 39.0234 26.2386 38.8984 26.097C38.7776 25.9554 38.5943 25.8138 38.3528 25.6722C37.7446 25.3265 37.249 24.9141 36.8616 24.4268C36.7991 24.3476 36.745 24.2893 36.695 24.2602C36.645 24.231 36.6075 24.2143 36.5867 24.2143H36.5575C36.4951 24.256 36.4118 24.381 36.2993 24.5934C36.1868 24.8058 36.066 25.0599 35.9328 25.3515C35.7995 25.6472 35.6953 25.9263 35.612 26.1887C35.2455 27.2633 35.0664 28.3962 35.0664 29.5917C35.0664 30.7871 35.2288 31.7784 35.5537 32.5698C35.8786 33.2362 36.2035 33.5736 36.5242 33.5736H36.645C37.0365 33.4945 37.4531 33.1488 37.8987 32.5406Z" fill="black"/>
<path d="M59.6281 33.1203C58.5118 31.9457 57.8745 30.0505 57.7121 27.4348C57.6913 27.089 57.6704 26.7558 57.6496 26.4309C57.6288 25.2563 57.5413 24.5607 57.3914 24.3483C57.2373 24.1359 57.1206 24.0276 57.0415 24.0276C56.6958 24.0276 56.1376 24.5024 55.3712 25.4563C54.7423 26.2477 54.1717 27.0807 53.6552 27.9637C53.1387 28.8468 52.5972 29.9131 52.0307 31.171C51.8475 31.575 51.6767 31.929 51.5142 32.2331C51.3518 32.5371 51.2393 32.7204 51.181 32.7787C51.0811 32.8787 50.8145 32.9287 50.3896 32.9287C50.1272 32.9287 49.9398 32.912 49.8273 32.8829C49.7149 32.8537 49.5982 32.7662 49.4774 32.6246C48.8068 31.8124 48.4736 30.0505 48.4736 27.3348V26.635C48.4736 26.0894 48.4945 25.602 48.5361 25.1772C48.5778 24.7523 48.6153 24.4691 48.6569 24.3275C48.6986 24.165 48.7319 24.0443 48.761 23.961C48.7902 23.8818 48.8527 23.8193 48.9443 23.7777C49.0359 23.736 49.1734 23.686 49.3567 23.6277C49.5982 23.5486 49.769 23.5069 49.8565 23.5069C49.944 23.5069 50.0148 23.5069 50.0523 23.5069C50.173 23.5069 50.3147 23.5278 50.4771 23.5694C50.7812 23.6111 51.0019 23.6777 51.1435 23.7652C51.2852 23.8568 51.3601 24.0068 51.3726 24.2192C51.381 24.4316 51.3893 24.6607 51.3893 24.9023C51.3893 25.1272 51.3768 25.4104 51.3601 25.752C51.3393 26.2393 51.3143 26.7308 51.2852 27.2265C51.256 27.7222 51.231 28.1137 51.2102 28.3969C51.1894 28.6802 51.1644 28.9884 51.1352 29.3258C51.1061 29.6631 51.0811 29.9589 51.0602 30.2213L50.9978 31.1043L51.2393 30.7086C51.3185 30.5878 51.4434 30.3837 51.6059 30.1005C51.7683 29.8173 51.9308 29.5049 52.0932 29.1591C53.4303 26.585 54.5965 24.8232 55.5878 23.8693C56.1335 23.4236 56.7124 23.2029 57.3206 23.2029C57.4414 23.2029 57.5622 23.2112 57.6871 23.232C58.4368 23.3153 59.0033 23.7402 59.3907 24.5066C59.5115 24.7898 59.6364 25.2105 59.7697 25.7687C59.903 26.3268 59.9988 26.8891 60.0571 27.4556C60.1571 28.1637 60.2737 28.8676 60.407 29.5673C60.5403 30.2671 60.6736 30.8294 60.8194 31.2543C61.2442 32.5705 61.6691 33.3244 62.0939 33.5201C62.5188 33.7117 62.852 33.8075 63.0977 33.8075C63.5018 33.8075 63.9266 33.6659 64.3765 33.3827C65.0845 32.937 65.7843 32.2789 66.4716 31.4084C66.8548 30.921 67.3379 30.2629 67.9169 29.4341C68.4959 28.6052 69.0207 27.8263 69.4955 27.1099C69.9704 26.3893 70.2078 25.9894 70.2078 25.9103C70.2078 25.8686 70.2536 25.8353 70.3452 25.8061C70.4369 25.777 70.5327 25.7645 70.6326 25.777C70.7326 25.7895 70.8159 25.8145 70.8742 25.852C70.895 25.8728 70.9034 25.9019 70.9034 25.9436C70.9034 26.2477 70.3952 27.1474 69.3831 28.6468C68.5917 29.8214 67.971 30.7128 67.5129 31.3209C67.0589 31.929 66.6173 32.4372 66.1925 32.8412C65.1803 33.8534 64.3473 34.3948 63.7017 34.4657C63.0519 34.5365 62.6687 34.5739 62.5479 34.5739C61.5108 34.5781 60.5403 34.0908 59.6281 33.1203Z" fill="black"/>
<path d="M72.0932 34.2443C70.777 33.4529 69.8523 32.1866 69.3275 30.4456C69.1651 29.8999 69.0859 29.221 69.0859 28.4088C69.0859 27.5799 69.1651 26.8302 69.3275 26.1596C69.4691 25.4723 69.7315 24.7684 70.1189 24.0478C70.5021 23.3272 70.9894 22.7149 71.5767 22.2109C72.1224 21.7653 72.6139 21.5153 73.0512 21.4654C73.4886 21.4154 73.776 21.3904 73.9176 21.3904C74.4424 21.3904 74.9006 21.5028 75.2838 21.7236C75.7503 21.986 75.9835 22.4317 75.9835 23.0606V23.2731C75.9419 23.6771 75.8044 24.1144 75.5712 24.5809C75.3379 25.0474 75.0505 25.464 74.7048 25.8263C74.1175 26.4761 73.3886 26.8718 72.5181 27.0134C72.2765 27.0551 72.0974 27.1092 71.9849 27.18C71.8725 27.2508 71.8183 27.3841 71.8183 27.5757C71.8183 27.7673 71.8183 27.9673 71.8183 28.1672V28.9253C71.9183 30.7913 72.3556 32.2075 73.1262 33.1821C73.8343 34.0152 74.6174 34.4275 75.4671 34.4275C76.3168 34.4275 77.1581 34.1235 77.9912 33.5154C79.3907 32.524 81.011 30.4747 82.852 27.3758C83.0728 27.0093 83.2644 26.6885 83.4143 26.4053C83.5684 26.1221 83.6434 25.9596 83.6434 25.918C83.6434 25.7972 83.6767 25.7264 83.7475 25.7056C83.8183 25.6847 83.8725 25.6764 83.9141 25.6764C83.9933 25.6764 84.0766 25.6972 84.1557 25.7389C84.2557 25.7805 84.3057 25.8513 84.3057 25.9513C84.3057 25.9721 84.2973 26.0013 84.2765 26.0429C84.1765 26.347 83.8558 26.9385 83.3185 27.8215C82.7812 28.7045 82.1564 29.65 81.4483 30.6622C80.332 32.2408 79.2408 33.4071 78.1661 34.1568C77.2539 34.7233 76.5167 35.0148 75.9461 35.0232C75.3796 35.0357 75.0755 35.0398 75.0339 35.0398C73.9676 35.0357 72.9846 34.7691 72.0932 34.2443ZM72.668 26.3095C73.2137 26.0263 73.6843 25.6056 74.08 25.0474C74.4757 24.4893 74.6715 23.977 74.6715 23.5146C74.6715 22.9482 74.6049 22.6399 74.4757 22.5858C74.3425 22.5358 74.2467 22.5108 74.1883 22.5108C74.0051 22.5108 73.8218 22.5816 73.6427 22.7233C73.3595 22.9274 73.1179 23.1898 72.9138 23.5146C72.7513 23.8187 72.5847 24.2352 72.414 24.76C72.2432 25.289 72.1265 25.7222 72.0641 26.0679C72.0432 26.1887 72.0349 26.2804 72.0349 26.3428C72.0349 26.4261 72.0557 26.4761 72.0974 26.497H72.1599C72.2723 26.4928 72.4473 26.4345 72.668 26.3095Z" fill="black"/>
<path d="M145.274 37.4348C145.174 36.5642 145.12 35.6104 145.12 34.5774C145.12 33.786 145.149 32.9572 145.212 32.0866C145.333 30.0415 145.637 27.0925 146.124 23.2439C146.57 19.7784 146.828 17.45 146.899 16.2546C146.969 15.0592 147.003 14.1262 147.003 13.4597C147.003 12.6684 146.974 11.9394 146.911 11.273C146.849 10.4025 146.686 9.4403 146.424 8.3865C146.161 7.3327 145.791 6.58713 145.316 6.15395C144.841 5.72077 144.366 5.50001 143.904 5.50001C143.458 5.50001 142.962 5.63328 142.413 5.89569C140.326 7.07029 138.239 9.41948 136.152 12.9474C134.732 15.4591 133.545 18.2748 132.583 21.3945C131.621 24.5143 131.05 27.4424 130.867 30.179C130.846 30.5455 130.817 30.8537 130.775 31.1078C130.733 31.3619 130.692 31.5077 130.654 31.5493C130.613 31.6118 130.521 31.6493 130.379 31.6701C130.238 31.6909 130.104 31.6993 129.984 31.6993H129.8C129.596 31.6993 129.446 31.6784 129.346 31.6368C129.267 31.616 129.188 31.5701 129.117 31.4993C129.046 31.4285 128.992 31.3536 128.951 31.2703C128.667 30.4205 128.443 28.3213 128.28 24.9808C128.259 24.2935 128.23 23.4854 128.188 22.5649C128.147 21.6444 128.105 20.8155 128.068 20.0866C127.905 15.7298 127.46 13.2265 126.731 12.5809C126.61 12.4393 126.477 12.3685 126.335 12.3685H126.243C126.081 12.3893 125.818 12.5226 125.452 12.7642C124.319 13.5556 123.203 14.9967 122.107 17.096C121.012 19.1911 120.079 21.6902 119.312 24.5892C119.192 24.9724 119.1 25.3015 119.037 25.5764C118.975 25.8513 118.904 26.1804 118.825 26.5636C118.742 26.9468 118.633 27.4841 118.492 28.1755C117.784 31.5993 117.276 35.348 116.971 39.4216V39.6049C116.909 40.3963 116.859 41.0127 116.822 41.4584C116.78 41.9041 116.73 42.2248 116.667 42.4164C116.605 42.608 116.534 42.7163 116.455 42.7371C116.372 42.7579 116.293 42.7663 116.213 42.7663H115.909C115.605 42.7454 115.38 42.6538 115.239 42.4914C115.097 42.3289 114.956 41.9957 114.814 41.4875C114.227 39.5632 113.81 37.1307 113.569 34.1942C113.327 31.2577 113.202 28.542 113.202 26.0471C113.202 24.9724 113.223 23.8895 113.264 22.794C113.385 19.6326 113.577 17.0793 113.843 15.1342C113.885 14.7885 113.914 14.5219 113.935 14.3303C113.956 14.1387 113.964 14.0096 113.964 13.9513C113.964 13.8721 113.952 13.8305 113.935 13.8305H113.906C113.885 13.8305 113.835 13.8513 113.752 13.8929C113.668 13.9346 113.56 14.0054 113.419 14.1054C112.144 15.0384 110.045 16.1338 107.129 17.3876C106.621 17.6125 106.138 17.8332 105.671 18.054C105.205 18.2789 104.872 18.4497 104.667 18.5705C103.31 19.4035 102.581 20.4948 102.481 21.8527V22.4608C102.481 22.6024 102.522 22.7024 102.601 22.7649C102.681 22.844 102.722 22.9065 102.722 22.9481V22.9773C102.701 23.0189 102.61 23.0564 102.447 23.0981H102.327C102.185 23.0981 102.052 23.0564 101.931 22.9773C101.768 22.8357 101.668 22.6524 101.627 22.4316C101.606 22.3109 101.598 22.1776 101.598 22.0359C101.598 21.6319 101.689 21.2071 101.873 20.7572C102.097 20.1699 102.439 19.6451 102.906 19.1786C103.21 18.8537 103.63 18.5413 104.168 18.2373C104.705 17.9332 105.488 17.5583 106.521 17.1127C109.703 15.734 112.032 14.4594 113.51 13.2848C113.693 13.1432 113.856 13.0016 113.998 12.86C114.139 12.7183 114.21 12.6184 114.21 12.5559C114.231 12.4934 114.264 12.3393 114.314 12.0852C114.364 11.8311 114.422 11.5438 114.481 11.2189C115.23 7.26607 116.263 4.27127 117.58 2.22198C118.146 1.33062 118.713 0.751649 119.283 0.48924C119.566 0.347622 119.92 0.280978 120.345 0.293474C120.77 0.30597 121.074 0.380939 121.258 0.522556C121.441 0.705826 121.532 1.01822 121.532 1.4639C121.532 1.78879 121.482 2.18449 121.378 2.65099C121.153 3.74645 120.699 4.99185 120.012 6.3872C119.708 6.99532 119.325 7.67425 118.858 8.42399C118.392 9.17373 117.975 9.78185 117.613 10.2484C117.43 10.4525 117.217 11.3813 116.976 13.0432C116.651 15.1925 116.418 17.1668 116.276 18.9703C116.134 20.7739 116.022 22.9606 115.943 25.5347C115.922 26.5677 115.914 27.6507 115.914 28.7878V30.5205C115.914 32.3032 115.934 33.8569 115.976 35.1856C116.018 36.5143 116.076 37.1765 116.159 37.1765L116.251 36.81C116.293 36.5684 116.33 36.2644 116.372 35.8978C117.446 27.9131 118.967 21.836 120.933 17.6625C121.478 16.4462 122.078 15.3633 122.724 14.4094C123.373 13.4556 123.982 12.7767 124.548 12.3726C125.219 11.8853 125.893 11.6437 126.585 11.6437C126.747 11.6437 126.91 11.6562 127.072 11.6729C127.922 11.7937 128.622 12.2727 129.167 13.1015C130.038 14.6427 130.583 17.3667 130.808 21.2779C130.85 22.2692 130.883 22.794 130.912 22.844C130.942 22.894 130.967 22.919 130.987 22.919C131.05 22.919 131.158 22.6274 131.321 22.0359C132.799 17.0918 134.786 12.8974 137.277 9.4528C137.948 8.58227 138.656 7.78672 139.405 7.06613C140.155 6.34555 140.842 5.80406 141.471 5.44169C142.363 4.95435 143.212 4.71277 144.025 4.71277C144.429 4.71277 144.824 4.77525 145.212 4.89604C146.365 5.26258 147.278 6.11229 147.948 7.44933C148.394 8.29903 148.702 9.2862 148.877 10.4108C149.048 11.5354 149.135 13.0099 149.135 14.8343C149.135 15.8048 149.119 16.6628 149.09 17.4042C149.06 18.1456 148.99 19.012 148.877 20.0033C148.765 20.9946 148.606 22.365 148.406 24.1061C147.861 28.4421 147.544 31.3077 147.465 32.7073C147.386 34.1068 147.344 35.1189 147.344 35.7479C147.344 36.9433 147.415 37.9971 147.557 38.9093C147.94 41.4417 148.456 43.0162 149.106 43.6368C149.756 44.2533 150.331 44.5615 150.839 44.5615C151.305 44.5615 151.793 44.3907 152.297 44.045C153.351 43.3369 154.375 41.9499 155.367 39.8798C156.158 38.197 157.078 35.8978 158.132 32.9822C158.436 32.1325 158.757 31.2161 159.09 30.2331C159.423 29.2501 159.719 28.3796 159.973 27.6174C160.227 26.8593 160.352 26.4261 160.352 26.3261C160.352 26.1845 160.402 26.0762 160.502 26.0054C160.602 25.9346 160.706 25.9013 160.806 25.9013C160.848 25.9013 160.898 25.9096 160.96 25.9304C161.04 25.9513 161.094 25.9846 161.115 26.0387C161.135 26.0887 161.144 26.1554 161.144 26.2345C161.144 26.297 161.135 26.3761 161.115 26.4761C161.031 26.8801 160.69 27.9797 160.082 29.7749C159.473 31.5701 158.799 33.4695 158.061 35.473C157.32 37.4806 156.729 39.0176 156.283 40.0922C155.329 42.2206 154.363 43.6118 153.38 44.2699C152.397 44.928 151.53 45.2571 150.781 45.2571C150.414 45.2571 150.052 45.1946 149.685 45.0738C148.569 44.6906 147.615 43.8367 146.811 42.5205C146.007 41.1918 145.499 39.5007 145.274 37.4348ZM118.983 6.64544C119.733 5.16679 120.129 3.90888 120.17 2.87591L120.2 1.99288L119.958 2.38858C119.775 2.69264 119.541 3.20913 119.258 3.93805C118.975 4.66696 118.713 5.42087 118.467 6.20393C118.225 6.98283 118.063 7.59512 117.979 8.04079L117.917 8.40734L118.159 8.10327C118.238 8.02413 118.354 7.84086 118.508 7.55763C118.667 7.27439 118.821 6.97033 118.983 6.64544Z" fill="black"/>
<path d="M162.323 34.2443C161.007 33.4529 160.086 32.1866 159.557 30.4456C159.395 29.8999 159.315 29.221 159.315 28.4088C159.315 27.5799 159.399 26.8302 159.557 26.1596C159.699 25.4723 159.961 24.7684 160.348 24.0478C160.732 23.3272 161.219 22.7149 161.806 22.2109C162.352 21.7653 162.843 21.5153 163.281 21.4654C163.714 21.4154 164.005 21.3904 164.147 21.3904C164.672 21.3904 165.13 21.5028 165.513 21.7236C165.98 21.986 166.213 22.4317 166.213 23.0606V23.2731C166.171 23.6771 166.034 24.1144 165.801 24.5809C165.567 25.0474 165.28 25.464 164.934 25.8263C164.347 26.4761 163.618 26.8718 162.748 27.0134C162.506 27.0551 162.327 27.1092 162.214 27.18C162.102 27.2508 162.048 27.3841 162.048 27.5757C162.048 27.7673 162.048 27.9673 162.048 28.1672V28.9253C162.148 30.7913 162.585 32.2075 163.356 33.1821C164.064 34.0152 164.847 34.4275 165.697 34.4275C166.546 34.4275 167.388 34.1235 168.221 33.5154C169.62 32.524 171.24 30.4747 173.082 27.3758C173.306 27.0093 173.494 26.6885 173.644 26.4053C173.794 26.1221 173.873 25.9596 173.873 25.918C173.873 25.7972 173.906 25.7264 173.981 25.7056C174.052 25.6847 174.106 25.6764 174.148 25.6764C174.227 25.6764 174.31 25.6972 174.389 25.7389C174.489 25.7805 174.543 25.8513 174.543 25.9513C174.543 25.9721 174.531 26.0013 174.514 26.0429C174.414 26.347 174.094 26.9385 173.556 27.8215C173.019 28.7045 172.394 29.65 171.686 30.6622C170.57 32.2408 169.479 33.4071 168.404 34.1568C167.492 34.7233 166.75 35.0148 166.184 35.0232C165.617 35.0357 165.313 35.0398 165.272 35.0398C164.197 35.0357 163.218 34.7691 162.323 34.2443ZM162.902 26.3095C163.447 26.0263 163.918 25.6056 164.314 25.0474C164.709 24.4893 164.905 23.977 164.905 23.5146C164.905 22.9482 164.839 22.6399 164.709 22.5858C164.576 22.5358 164.48 22.5108 164.422 22.5108C164.239 22.5108 164.055 22.5816 163.876 22.7233C163.593 22.9274 163.347 23.1898 163.147 23.5146C162.985 23.8187 162.818 24.2352 162.648 24.76C162.477 25.289 162.36 25.7222 162.298 26.0679C162.277 26.1887 162.269 26.2804 162.269 26.3428C162.269 26.4261 162.289 26.4761 162.331 26.497H162.394C162.506 26.4928 162.681 26.4345 162.902 26.3095Z" fill="black"/>
</svg>
