<svg width="16" height="16" viewBox="0 0 16 16" fill="none" xmlns="http://www.w3.org/2000/svg">
<g clip-path="url(#clip0_213_745)">
<path d="M4.19727 9.875C4.6665 10.8114 5.46411 11.5487 6.44885 11.9281C6.15723 11.3633 5.94275 10.6492 5.81165 9.875H4.19727Z" fill="#FF9203"/>
<path d="M4.19727 6.125H5.81165C5.94275 5.35083 6.15723 4.63672 6.44885 4.0719C5.46411 4.45129 4.6665 5.1886 4.19727 6.125Z" fill="#FF9203"/>
<path d="M8.01917 3.7876C8.00916 3.78748 8 3.78467 7.99011 3.78467C7.57385 3.7981 7.02979 4.67041 6.76074 6.125H9.23962C8.97241 4.6803 8.43433 3.81226 8.01917 3.7876Z" fill="#FF9203"/>
<path d="M7.99011 12.2153C8 12.2152 8.00916 12.2125 8.01917 12.2124C8.4342 12.1877 8.97241 11.3198 9.23962 9.875H6.76074C7.02979 11.3296 7.57385 12.2019 7.99011 12.2153Z" fill="#FF9203"/>
<path d="M5.65625 8C5.65625 7.68811 5.66907 7.37378 5.69446 7.0625H3.85059C3.78137 7.36511 3.7373 7.67676 3.7373 8C3.7373 8.32324 3.78149 8.63489 3.85059 8.9375H5.69446C5.66907 8.62622 5.65625 8.31189 5.65625 8Z" fill="#FF9203"/>
<path d="M9.57031 4.10498C9.85291 4.66431 10.0609 5.36646 10.1893 6.125H11.7158C11.2629 5.22119 10.5085 4.49512 9.57031 4.10498Z" fill="#FF9203"/>
<path d="M10.3439 8C10.3439 8.31189 10.3311 8.62622 10.3057 8.9375H12.0616C12.1309 8.63489 12.1749 8.32324 12.1749 8C12.1749 7.67676 12.1309 7.36511 12.0616 7.0625H10.3057C10.3311 7.37378 10.3439 7.68811 10.3439 8Z" fill="#FF9203"/>
<path d="M16 8C16 3.60596 12.394 0 8 0C3.60596 0 0 3.60596 0 8C0 12.394 3.60596 16 8 16C9.47034 16 10.899 15.5677 12.1465 14.8065L16 16L14.9004 11.9885C15.5997 10.78 16 9.40576 16 8ZM8.0376 13.1521C8.0249 13.1526 8.01294 13.1562 8 13.1562C7.99524 13.1562 7.99097 13.1548 7.98621 13.1547C7.97607 13.1548 7.96619 13.1562 7.95605 13.1562C5.11292 13.1562 2.7998 10.8431 2.7998 8C2.7998 5.15686 5.11292 2.84375 7.95605 2.84375C7.96619 2.84375 7.97607 2.84521 7.98621 2.84534C7.99097 2.84521 7.99524 2.84375 8 2.84375C8.01294 2.84375 8.0249 2.84741 8.0376 2.8479C10.843 2.89209 13.1123 5.18433 13.1123 8C13.1123 10.8157 10.843 13.1079 8.0376 13.1521Z" fill="#FF9203"/>
<path d="M6.63269 7.0625C6.60791 7.35913 6.59375 7.67151 6.59375 8C6.59375 8.32849 6.60791 8.64087 6.63269 8.9375H9.36731C9.39209 8.64087 9.40625 8.32849 9.40625 8C9.40625 7.67151 9.39209 7.35913 9.36731 7.0625H6.63269Z" fill="#FF9203"/>
<path d="M9.57031 11.895C10.5085 11.5049 11.2629 10.7788 11.7158 9.875H10.1893C10.0609 10.6335 9.85291 11.3357 9.57031 11.895Z" fill="#FF9203"/>
</g>
<defs>
<clipPath id="clip0_213_745">
<rect width="16" height="16" fill="white"/>
</clipPath>
</defs>
</svg>
