<svg width="96" height="88" viewBox="0 0 96 88" fill="none" xmlns="http://www.w3.org/2000/svg">
<path d="M72.2182 0.0502388C52.8665 1.24566 49.047 13.179 48.5139 17.7941C48.5014 15.3866 48.0141 11.0798 45.1067 7.43518C41.1873 2.32029 31.1366 -2.8196 16.3917 2.74931C1.74675 8.28489 -0.610764 24.0836 1.33023 32.918C2.98799 40.4737 6.82416 45.9885 9.92725 49.6622C12.6013 52.8278 23.3601 41.6442 20.1196 38.4744C20.1196 38.4744 16.7041 35.3255 18.7284 32.1433C20.0654 30.0399 23.4309 30.1523 24.3972 32.0142C25.5094 34.1593 26.5548 35.4505 27.7086 34.3717C28.9957 33.1721 26.4674 27.4907 28.7166 24.8417C30.9658 22.1967 34.802 19.8142 40.3625 17.6983C40.7166 17.565 41.054 17.4192 41.3747 17.2609C42.4118 19.2311 43.4823 21.547 43.7947 23.2172C44.4528 26.7285 42.97 28.2113 44.1779 30.1315C45.3858 32.0517 50.7631 37.2082 50.3799 38.7452C49.9967 40.2821 48.4056 40.7736 46.373 41.4317C44.3403 42.0899 46.4813 44.0642 46.373 44.8889C46.2647 45.7136 45.8232 45.9843 44.0696 46.5883C44.0696 46.5883 45.7149 47.7421 45.1651 48.8375C44.6152 49.933 42.8783 49.9913 43.2532 50.8118C43.6281 51.6365 45.8773 54.4314 42.8617 56.7389C39.8419 59.0423 35.6184 57.5637 34.1938 58.2759C32.7693 58.9882 32.2195 59.9212 32.2195 63.1034C32.2195 66.2856 31.0116 65.0236 28.0501 67.9309C27.7919 68.1808 27.392 68.2725 26.8755 68.2308C37.6218 78.7313 48.4139 87.0076 48.4139 87.0076C48.4139 87.0076 64.3584 75.3408 76.8208 61.9996C78.0328 60.8792 79.2116 59.6713 80.332 58.3634C107.702 26.5286 94.7729 -1.34511 72.2182 0.0502388ZM73.626 34.7049C73.626 34.7049 74.3341 30.8187 76.8041 32.0558C79.2782 33.2929 78.3452 44.8056 71.2102 56.2558C70.3313 57.6636 69.0443 59.1173 67.2782 60.0878C63.138 62.3662 59.8433 61.1791 59.0477 60.1253C56.9235 57.3179 58.7437 55.2686 57.7565 53.9774C56.7694 52.6862 55.6531 53.4318 55.0991 52.3071C53.962 49.983 58.7978 49.5831 57.8315 49.3457C55.9905 48.8958 54.4743 49.3832 54.1036 48.1877C53.7412 47.0173 55.4032 46.5383 54.3535 44.943C53.3039 43.3477 50.4007 45.2013 50.3966 42.3647C50.3924 40.1738 54.037 35.0048 54.795 33.1055C55.1449 32.2349 55.1699 31.4144 55.0575 30.5563C55.3282 30.7354 55.6031 30.9062 55.878 31.0728C57.9898 34.7257 61.4469 37.3165 68.4487 40.0114C68.4487 40.0114 60.3265 35.488 60.3681 33.068C66.8867 35.2006 73.626 34.7049 73.626 34.7049Z" fill="url(#paint0_linear_71_153)"/>
<path d="M71.1982 56.2557C70.3193 57.6635 69.0448 59.1172 67.2787 60.0877C63.1385 62.3661 59.8313 61.179 59.0357 60.1252C56.9115 57.3178 58.7317 55.2685 57.7445 53.9773C56.7574 52.6861 55.6411 53.4317 55.0871 52.3071C53.95 49.9829 58.7858 49.583 57.8195 49.3456C55.9785 48.8957 54.4623 49.3831 54.0916 48.1877C53.7292 47.0172 55.3912 46.5382 54.3415 44.9429C53.2919 43.3477 50.3887 45.2012 50.3846 42.3605C50.3846 42.2272 50.4012 42.0814 50.4262 41.9315C50.4304 41.9315 50.4304 41.9315 50.4345 41.9273C50.8344 39.549 54.0833 34.8923 54.7955 33.1137C55.1454 32.2432 55.1704 31.4226 55.0579 30.5646C50.5595 25.6704 48.9892 20.8763 48.6019 17.1317C48.5644 17.365 48.531 17.5899 48.506 17.7982C48.5019 16.5736 48.3686 14.8534 47.8604 12.979C46.0902 15.9363 43.2412 16.4695 41.371 17.2567C42.2291 18.9769 43.5244 21.8259 43.7869 23.2255C44.445 26.7367 42.9621 28.2196 44.17 30.1397C44.8323 31.1935 46.7483 33.222 48.2811 35.0922C48.4019 35.2421 48.5227 35.3879 48.6393 35.5379C48.681 35.5878 48.7185 35.6378 48.7601 35.6878C48.8684 35.8253 48.9726 35.9627 49.0725 36.096C49.1142 36.1543 49.16 36.2085 49.2016 36.2668C49.2974 36.3959 49.3849 36.5209 49.4724 36.6458C49.5099 36.7 49.5474 36.7541 49.5848 36.8124C49.6681 36.9332 49.7473 37.054 49.8181 37.1706C49.8472 37.2206 49.8764 37.2664 49.9014 37.3123C49.9722 37.4289 50.0347 37.5455 50.093 37.6538C50.1097 37.6871 50.1263 37.7204 50.1388 37.7538C50.193 37.8704 50.2471 37.9829 50.2846 38.087C50.2888 38.0953 50.2888 38.1036 50.2929 38.1161C50.3762 38.3619 50.4054 38.5743 50.3637 38.7451C49.9805 40.2821 48.3894 40.7736 46.3568 41.4317C44.3283 42.0898 46.4651 44.0641 46.3568 44.8888C46.2485 45.7135 45.807 45.9842 44.0534 46.5882C44.0534 46.5882 45.6987 47.742 45.1489 48.8374C44.5991 49.9329 42.8622 49.9912 43.237 50.8117C43.6119 51.6365 45.8611 54.4313 42.8455 56.7389C39.8257 59.0422 35.6022 57.5636 34.1777 58.2758C32.7532 58.9881 32.2034 59.9211 32.2034 63.1033C32.2034 66.2856 30.9954 65.0235 28.034 67.9308C27.7757 68.1807 27.3759 68.2724 26.8594 68.2307C37.6057 78.7312 48.3977 87.0075 48.3977 87.0075C48.3977 87.0075 67.8827 66.6521 74.3138 50.4452C74.3179 50.4369 74.3179 50.4285 74.3221 50.4202C73.4557 52.3321 72.4186 54.2939 71.1982 56.2557Z" fill="url(#paint1_linear_71_153)"/>
<defs>
<linearGradient id="paint0_linear_71_153" x1="47.3308" y1="81.1574" x2="48.5515" y2="8.7314" gradientUnits="userSpaceOnUse">
<stop stop-color="#EF4545"/>
<stop offset="1" stop-color="#A31E22"/>
</linearGradient>
<linearGradient id="paint1_linear_71_153" x1="49.1421" y1="-14.864" x2="51.2783" y2="94.2327" gradientUnits="userSpaceOnUse">
<stop stop-color="#EF4545"/>
<stop offset="1" stop-color="#A31E22"/>
</linearGradient>
</defs>
</svg>
