<svg width="92" height="86" viewBox="0 0 92 86" fill="none" xmlns="http://www.w3.org/2000/svg">
<path d="M87.9139 79.8866L54.3287 85.0697H24.2637L15.6698 29.3614L12.9789 11.912C12.8235 10.9043 13.5144 9.96137 14.5222 9.806L75.6551 0.380767C76.6628 0.225403 77.6057 0.916355 77.761 1.92405L89.457 77.7807C89.6123 78.7883 88.9215 79.7311 87.9139 79.8866Z" fill="#F3FCFF"/>
<path d="M83.9852 6.47353V83.2256C83.9852 84.246 83.1661 85.0722 82.1386 85.0722H20.2885C19.2682 85.0722 18.4419 84.246 18.4419 83.2256V6.47353C18.4419 5.45321 19.2682 4.62689 20.2885 4.62689H82.1386C83.1661 4.62689 83.9852 5.45321 83.9852 6.47353Z" fill="white"/>
<path d="M83.9874 6.47191V83.2265C83.9874 84.2461 83.1608 85.0727 82.1412 85.0727H20.2851C19.2655 85.0727 18.439 84.2461 18.439 83.2265V82.0173H43.3808C64.1197 82.0173 80.932 65.2051 80.932 44.4661V4.62573H82.1412C83.1608 4.62573 83.9874 5.45229 83.9874 6.47191Z" fill="#F3FCFF"/>
<g opacity="0.05">
<path d="M83.985 77.5421V83.2256C83.985 84.246 83.1658 85.0722 82.1384 85.0722H42.8426L36.4478 82.2053L43.4749 79.0511L47.6495 77.1901H82.1527C82.7994 77.1901 83.4173 77.3122 83.985 77.5421Z" fill="black"/>
</g>
<g opacity="0.05">
<path d="M31.6842 70.4863C31.6842 76.7375 28.2425 82.1981 23.1482 85.0722H20.2885C19.2682 85.0722 18.4419 84.246 18.4419 83.2256V44.2029C20.9064 45.4747 22.595 48.047 22.595 51.0073C22.595 52.5952 22.1063 53.9317 21.201 54.952C21.8477 55.2106 22.4728 55.5124 23.0835 55.8501C28.3862 58.8104 31.6842 64.4148 31.6842 70.4863Z" fill="black"/>
</g>
<path d="M38.7783 43.5198V52.4066C38.7783 53.4747 37.9124 54.3406 36.8443 54.3406H27.9575C26.8893 54.3406 26.0234 53.4747 26.0234 52.4066V43.5198C26.0234 42.4516 26.8893 41.5858 27.9575 41.5858H36.8443C37.9124 41.5858 38.7783 42.4516 38.7783 43.5198Z" fill="#FF4B3A"/>
<g opacity="0.2">
<path d="M38.7783 50.4693V52.4033C38.7783 53.4767 37.908 54.3373 36.8443 54.3373H27.9575C26.8938 54.3373 26.0234 53.4767 26.0234 52.4033V50.4693C26.0234 51.5427 26.8938 52.4033 27.9575 52.4033H36.8443C37.908 52.4033 38.7783 51.5427 38.7783 50.4693Z" fill="#384B7D"/>
</g>
<g opacity="0.5">
<path d="M30.9166 46.8914C30.9166 48.3129 30.1527 49.4636 29.2146 49.4636C28.2767 49.4636 27.5127 48.3129 27.5127 46.8914C27.5127 45.4795 28.2767 44.3288 29.2146 44.3288C30.1527 44.3288 30.9166 45.4795 30.9166 46.8914Z" fill="white"/>
</g>
<path d="M38.7783 63.3528V72.2396C38.7783 73.3077 37.9124 74.1736 36.8443 74.1736H27.9575C26.8893 74.1736 26.0234 73.3077 26.0234 72.2396V63.3528C26.0234 62.2846 26.8893 61.4188 27.9575 61.4188H36.8443C37.9124 61.4188 38.7783 62.2846 38.7783 63.3528Z" fill="#FFE93E"/>
<g opacity="0.2">
<path d="M38.7783 70.3023V72.2363C38.7783 73.3098 37.908 74.1703 36.8443 74.1703H27.9575C26.8938 74.1703 26.0234 73.3098 26.0234 72.2363V70.3023C26.0234 71.3757 26.8938 72.2363 27.9575 72.2363H36.8443C37.908 72.2363 38.7783 71.3757 38.7783 70.3023Z" fill="#384B7D"/>
</g>
<g opacity="0.5">
<path d="M30.9166 66.7244C30.9166 68.1459 30.1527 69.2966 29.2146 69.2966C28.2767 69.2966 27.5127 68.1459 27.5127 66.7244C27.5127 65.3126 28.2767 64.1618 29.2146 64.1618C30.1527 64.1618 30.9166 65.3126 30.9166 66.7244Z" fill="white"/>
</g>
<path d="M38.7783 23.6868V32.5736C38.7783 33.6418 37.9124 34.5077 36.8443 34.5077H27.9575C26.8893 34.5077 26.0234 33.6418 26.0234 32.5736V23.6868C26.0234 22.6187 26.8893 21.7528 27.9575 21.7528H36.8443C37.9124 21.7528 38.7783 22.6187 38.7783 23.6868Z" fill="#00FFC1"/>
<g opacity="0.2">
<path d="M38.7783 30.6364V32.5704C38.7783 33.6438 37.908 34.5044 36.8443 34.5044H27.9575C26.8938 34.5044 26.0234 33.6438 26.0234 32.5704V30.6364C26.0234 31.7098 26.8938 32.5704 27.9575 32.5704H36.8443C37.908 32.5704 38.7783 31.7098 38.7783 30.6364Z" fill="#384B7D"/>
</g>
<g opacity="0.5">
<path d="M30.9166 27.0584C30.9166 28.4799 30.1527 29.6307 29.2146 29.6307C28.2767 29.6307 27.5127 28.4799 27.5127 27.0584C27.5127 25.6466 28.2767 24.4958 29.2146 24.4958C30.1527 24.4958 30.9166 25.6466 30.9166 27.0584Z" fill="white"/>
</g>
<path d="M14.9443 54.9549C13.5852 54.9549 9.4502 54.9549 9.4502 51.0073C9.4502 47.9781 11.9152 45.5139 14.9443 45.5139C17.9735 45.5139 20.4385 47.9781 20.4385 51.0073C20.4385 54.9549 16.3035 54.9549 14.9443 54.9549ZM14.9443 47.1199C12.8225 47.1199 11.0961 48.8457 11.0961 50.9675C11.0961 52.2041 11.562 53.3489 14.9443 53.3489C18.3267 53.3489 18.7926 52.2041 18.7926 50.9675C18.7926 48.8457 17.0661 47.1199 14.9443 47.1199Z" fill="#00C5EA"/>
<path d="M17.3404 55.0604V56.4687H12.5488V55.0604C12.5488 54.8114 12.5832 54.571 12.6519 54.3477C12.961 53.3688 13.8713 52.6561 14.9446 52.6561C15.6058 52.6561 16.2069 52.9223 16.6362 53.3602C16.8252 53.5405 16.9797 53.7638 17.0914 54.0042C17.1515 54.1159 17.1944 54.2275 17.2373 54.3477C17.3061 54.571 17.3404 54.8114 17.3404 55.0604Z" fill="#00C5EA"/>
<g opacity="0.1">
<path d="M17.3404 55.0604V56.4687H12.5488V55.0604C12.5488 54.8114 12.5832 54.5709 12.6519 54.3477C13.3989 54.236 14.1718 54.1845 14.9446 54.1845C15.7174 54.1845 16.4817 54.236 17.2373 54.3477C17.3061 54.5709 17.3404 54.8114 17.3404 55.0604Z" fill="#384B7D"/>
</g>
<path d="M29.5296 70.4846C29.5296 78.5448 22.994 85.0697 14.9445 85.0697C11.5648 85.0697 8.46218 83.9289 5.98868 82.0098C2.56634 79.3338 0.359375 75.1651 0.359375 70.4846C0.359375 62.4351 6.88428 55.8995 14.9445 55.8995C17.5246 55.8995 19.9448 56.5712 22.0345 57.7333C26.5017 60.2282 29.5296 65.0045 29.5296 70.4846Z" fill="#00C5EA"/>
<g opacity="0.5">
<path d="M25.8826 60.8461C25.0994 60.1564 24.2444 59.5456 23.3319 59.0355C21.2482 57.8714 18.8268 57.2033 16.2473 57.2033C8.18552 57.2033 1.66136 63.7346 1.66136 71.7892C1.66136 75.4967 3.04809 78.8881 5.33298 81.4605C2.28646 78.7876 0.36084 74.8572 0.36084 70.4815C0.36084 62.4341 6.885 55.9027 14.9468 55.9027C17.5263 55.9027 19.9477 56.571 22.0314 57.735C23.49 58.5469 24.7905 59.6031 25.8826 60.8461Z" fill="white"/>
</g>
<g opacity="0.05">
<path d="M29.5332 70.4821C29.5332 78.5481 22.9907 85.0726 14.9426 85.0726C11.5638 85.0726 8.46289 83.9255 5.98935 82.0075C5.29924 81.4698 4.6629 80.8783 4.08936 80.224C4.3313 80.4481 4.5733 80.6542 4.83318 80.8514C7.30678 82.7693 10.4077 83.9165 13.7865 83.9165C21.8346 83.9165 28.3771 77.392 28.3771 69.326C28.3771 65.5976 26.97 62.192 24.6577 59.6198C27.6511 62.2816 29.5332 66.1622 29.5332 70.4821Z" fill="black"/>
</g>
<path d="M26.3308 70.4846C26.3308 76.7856 21.2346 81.8712 14.9442 81.8712C11.17 81.8712 7.84361 80.0481 5.76458 77.2441C4.37858 75.3463 3.55762 73.0221 3.55762 70.4846C3.55762 64.1942 8.64323 59.098 14.9442 59.098C17.471 59.098 19.8166 59.9296 21.7037 61.3156C24.5077 63.3946 26.3308 66.721 26.3308 70.4846Z" fill="#D4F4FF"/>
<path d="M14.9441 82.2307C11.1761 82.2307 7.72526 80.4912 5.47638 77.4582C3.98601 75.4174 3.19873 73.0064 3.19873 70.4846C3.19873 64.0081 8.46763 58.7388 14.9441 58.7388C17.4681 58.7388 19.879 59.5296 21.9167 61.0263C24.9508 63.2759 26.6902 66.7229 26.6902 70.4846C26.6902 76.9614 21.4206 82.2307 14.9441 82.2307ZM14.9441 59.4573C8.86408 59.4573 3.91725 64.4042 3.91725 70.4846C3.91725 72.8531 4.65612 75.1174 6.05456 77.0323C8.16521 79.8786 11.4063 81.5121 14.9441 81.5121C21.0249 81.5121 25.9717 76.5653 25.9717 70.4846C25.9717 66.953 24.3382 63.7162 21.4901 61.6045C19.578 60.2001 17.3137 59.4573 14.9441 59.4573Z" fill="#D4F4FF"/>
<path d="M23.9111 68.0644C23.9111 74.3655 18.8149 79.451 12.5245 79.451C9.9977 79.451 7.65213 78.6301 5.76507 77.2441C4.37907 75.3463 3.55811 73.0221 3.55811 70.4846C3.55811 64.1942 8.64372 59.098 14.9447 59.098C17.4715 59.098 19.8171 59.9296 21.7042 61.3156C23.0902 63.2027 23.9111 65.5376 23.9111 68.0644Z" fill="white"/>
<path d="M16.2743 70.2921C16.2743 71.0226 15.6749 71.6127 14.9443 71.6127C14.2137 71.6127 13.6143 71.0226 13.6143 70.2921C13.6143 69.5521 14.2137 68.962 14.9443 68.962C15.6749 68.962 16.2743 69.5521 16.2743 70.2921Z" fill="#A4BCD1"/>
<path d="M41.7129 82.2066L44.3609 83.3934L48.1068 85.0726L48.1068 79.3488L44.3609 81.0199L41.7129 82.2066Z" fill="#FFCB8F"/>
<path d="M48.1099 79.349H80.5754V85.0727H48.1099V79.349Z" fill="#E98A42"/>
<g opacity="0.5">
<path d="M48.1138 83.3921H80.5786V85.0698H48.1138V83.3921Z" fill="#E98A42"/>
</g>
<path d="M78.2188 79.349H80.5762V85.0727H78.2188V79.349Z" fill="#F3FCFF"/>
<path d="M85.0137 82.2108V82.2108C85.0137 83.7914 83.7324 85.0727 82.1518 85.0727L80.5762 85.0727L80.5762 79.3489H82.1518C83.7324 79.3489 85.0137 80.6302 85.0137 82.2108Z" fill="#76819F"/>
<g opacity="0.3">
<path d="M80.7305 85.0727L82.1537 85.0727C83.7305 85.0727 85.0134 83.7898 85.0134 82.213C85.0134 80.6295 83.7305 79.3466 82.1536 79.3466H80.7305C82.314 79.3466 83.5969 80.6295 83.5969 82.213C83.5969 83.7898 82.314 85.0727 80.7305 85.0727Z" fill="white"/>
</g>
<path d="M0.719712 84.7136H0.370978C0.172403 84.7136 0.0117188 84.8742 0.0117188 85.0728C0.0117188 85.2714 0.172403 85.4321 0.370978 85.4321H0.719712C0.918287 85.4321 1.07897 85.2714 1.07897 85.0728C1.07897 84.8742 0.918287 84.7136 0.719712 84.7136Z" fill="#384B7D"/>
<path d="M90.9044 84.7136H90.4301C90.2315 84.7136 90.0708 84.8742 90.0708 85.0728C90.0708 85.2714 90.2315 85.4321 90.4301 85.4321H90.9044C91.103 85.4321 91.2637 85.2714 91.2637 85.0728C91.2637 84.8742 91.103 84.7136 90.9044 84.7136Z" fill="#384B7D"/>
<path d="M84.353 42.3223V6.47399C84.353 5.25763 83.3636 4.26826 82.1469 4.26826H78.4891L78.1192 1.86993C77.9305 0.665144 76.7945 -0.158977 75.5967 0.0259149L48.0908 4.26826H20.2897C19.073 4.26826 18.0837 5.25763 18.0837 6.47399V8.89601L14.4665 9.45261C13.8869 9.53962 13.3768 9.84871 13.0288 10.323C12.6779 10.8002 12.5362 11.3847 12.6274 11.9678L17.8642 45.9442C16.9769 45.4299 15.9845 45.1519 14.9443 45.1519C11.7152 45.1519 9.08814 47.779 9.08814 51.0078C9.08814 53.063 10.1667 54.4299 12.1904 54.9973C12.1899 55.0183 12.1846 55.0392 12.1846 55.0603V55.8064C5.2596 57.106 0 63.1878 0 70.4846C0 75.1227 2.10223 79.4264 5.7685 82.2938C7.16913 83.3806 8.72142 84.1872 10.3685 84.7136H2.15696C1.95838 84.7136 1.7977 84.8743 1.7977 85.0728C1.7977 85.2714 1.95838 85.4321 2.15696 85.4321C28.7499 85.4321 46.7562 85.4321 88.6339 85.4321C88.8325 85.4321 88.9932 85.2714 88.9932 85.0728C88.9932 84.8743 88.8325 84.7136 88.6339 84.7136H84.1543C84.8908 84.1227 85.3725 83.2263 85.3725 82.2107C85.3725 81.6636 85.2226 81.1558 84.9809 80.704L87.9701 80.2404C89.1729 80.0598 89.999 78.929 89.8092 77.7249L84.353 42.3223ZM75.7069 0.736013C76.5173 0.604799 77.2821 1.16825 77.4091 1.98044L77.7621 4.26826H52.8044L75.7069 0.736013ZM13.6076 10.7483C13.842 10.4293 14.1844 10.2217 14.5746 10.1631L18.0837 9.62299V42.651L13.3375 11.8573C13.2758 11.4636 13.3719 11.07 13.6076 10.7483ZM9.80666 51.0078C9.80666 48.1751 12.1117 45.8704 14.9443 45.8704C16.1035 45.8704 17.2023 46.2514 18.1335 46.9822C18.1578 47.0012 18.196 47.0353 18.2149 47.0531C19.4007 48.0298 20.0813 49.4711 20.0813 51.0078C20.0813 52.0368 19.7754 52.8539 19.1727 53.4345C18.9313 53.664 18.6345 53.8622 18.2871 54.025C18.0722 54.1282 17.8328 54.2125 17.5876 54.2864C17.5037 53.9907 17.3713 53.7117 17.1898 53.4589C17.8721 53.2719 18.3659 52.9758 18.6861 52.5624C18.6937 52.5553 18.7001 52.5479 18.707 52.5402C18.7148 52.5298 18.7265 52.522 18.7341 52.5114C18.7495 52.4901 18.7566 52.467 18.7709 52.4453C18.7719 52.4432 18.7734 52.4415 18.7743 52.4394C19.1063 51.9345 19.1544 51.3607 19.1544 50.9646C19.1544 50.3532 19.0258 49.7694 18.7746 49.2329C18.7733 49.2296 18.77 49.2216 18.7699 49.2213C18.0914 47.7267 16.5898 46.7612 14.9443 46.7612C12.6267 46.7612 10.7406 48.647 10.7406 50.9646C10.7406 51.899 10.9843 52.9929 12.7083 53.4634C12.5255 53.7166 12.3877 53.9931 12.3048 54.2853C10.6327 53.7942 9.80666 52.7242 9.80666 51.0078ZM17.7033 55.7988V55.0603C17.7033 55.0391 17.6988 55.0221 17.6983 55.0011C17.8287 54.9643 17.959 54.9281 18.0837 54.8834V55.8797C17.9569 55.8525 17.8308 55.8227 17.7033 55.7988ZM13.306 52.8584C11.6166 52.5525 11.4591 51.7586 11.4591 50.9646C11.4591 49.0431 13.0224 47.4797 14.9443 47.4797C16.2849 47.4797 17.506 48.2545 18.0837 49.4599V52.1605C17.8007 52.4972 17.3085 52.7273 16.5876 52.859C15.6323 52.156 14.2386 52.1616 13.306 52.8584ZM12.9032 55.0603C12.9032 52.3485 16.9848 52.4133 16.9848 55.0603V55.684C16.3102 55.5912 15.6287 55.5402 14.9443 55.5402C14.2503 55.5402 13.5724 55.6044 12.9032 55.6964V55.0603ZM0.718519 70.4846C0.718519 62.6405 7.10028 56.2588 14.9443 56.2588C17.3644 56.2588 19.7558 56.8773 21.8594 58.047C25.3797 60.0131 27.8515 63.3509 28.7698 67.171C28.751 67.1837 28.73 67.1918 28.7134 67.2085C28.573 67.3488 28.573 67.5761 28.7134 67.7165L28.9324 67.9355C30.5429 76.7471 23.7226 84.7104 14.9443 84.7104C11.7461 84.7104 8.72537 83.6786 6.20985 81.7269C2.72041 78.9977 0.718519 74.8999 0.718519 70.4846ZM38.4183 63.6457L32.0386 70.0257L29.6019 67.5889C29.2 65.5602 28.3816 63.6489 27.2159 61.9679C27.4439 61.8452 27.6942 61.7782 27.9563 61.7782H36.8444C37.7124 61.7782 38.4183 62.4841 38.4183 63.352V63.6457ZM38.4183 64.6618V72.2398C38.4183 73.1075 37.7124 73.8133 36.8444 73.8133H29.5019C29.7471 72.7411 29.8887 71.6301 29.8887 70.4846C29.8887 69.9132 29.8488 69.3477 29.7846 68.7877L31.7846 70.7877C31.925 70.9281 32.1524 70.928 32.2926 70.7877L38.4183 64.6618ZM19.7691 84.6145C24.3864 83.0331 27.9836 79.2578 29.3167 74.5319H36.8444C38.1081 74.5319 39.1368 73.5036 39.1368 72.2398V63.9432L40.0258 63.0542C40.1662 62.9138 40.1662 62.6865 40.0258 62.5462C39.8855 62.4058 39.6582 62.4058 39.5178 62.5462L39.0978 62.9662C38.913 61.8861 37.9761 61.0596 36.8444 61.0596H27.9563C27.5463 61.0596 27.1437 61.1741 26.7899 61.3831C25.5674 59.7901 24.0211 58.4312 22.2095 57.4193C21.1348 56.8218 19.9881 56.364 18.8022 56.0483V54.5575C19.1264 54.3842 19.4233 54.1871 19.6694 53.9534C20.4195 53.2307 20.7998 52.2395 20.7998 51.0078C20.7998 49.3046 20.0619 47.7081 18.8022 46.6185V6.47399C18.8022 5.65408 19.4695 4.98678 20.2897 4.98678H82.1469C82.9671 4.98678 83.6344 5.65408 83.6344 6.47399V79.3683C83.1886 79.1345 82.6892 78.9896 82.1518 78.9896C66.654 78.9896 63.9502 78.9896 48.1099 78.9896C48.0586 78.9896 48.0104 79.001 47.9662 79.0203C47.9653 79.0207 47.9642 79.0204 47.9632 79.0209L41.5688 81.8809C41.4397 81.9388 41.3562 82.0672 41.3562 82.2089C41.3562 82.3503 41.4397 82.4791 41.5688 82.537L46.4293 84.7136H20.2897C20.1091 84.7136 19.9339 84.6761 19.7691 84.6145ZM44.4739 81.3688L47.7506 79.9032V84.5178L44.4722 83.0499C44.6564 82.4399 44.6572 81.9797 44.4739 81.3688ZM77.8596 79.7081V84.7135L48.4691 84.7132V79.7081H77.8596ZM78.5781 84.7136V79.7081H80.2166V84.7136H78.5781ZM82.1518 84.7136H80.9351V79.7081H82.1518C83.5313 79.7081 84.654 80.8308 84.654 82.2107C84.654 83.5909 83.5313 84.7136 82.1518 84.7136ZM87.862 79.5299L84.5221 80.0481C84.467 79.9877 84.4125 79.9282 84.353 79.8721V47.0394L89.0991 77.8354C89.227 78.6414 88.6773 79.4077 87.862 79.5299Z" fill="#384B7D"/>
<path d="M39.5178 42.7132L39.0984 43.1327C38.9131 42.0529 37.9762 41.2267 36.8444 41.2267H27.9576C26.6932 41.2267 25.6646 42.2553 25.6646 43.5198V52.4065C25.6646 53.6713 26.6932 54.7 27.9576 54.7H36.8444C38.1088 54.7 39.1375 53.6713 39.1375 52.4065V44.1096L40.0258 43.2212C40.1661 43.0809 40.1661 42.8535 40.0258 42.7132C39.8855 42.5729 39.6581 42.5729 39.5178 42.7132ZM38.419 52.4065C38.419 53.2749 37.7124 53.9814 36.8444 53.9814H27.9576C27.0897 53.9814 26.3831 53.2749 26.3831 52.4065V43.5198C26.3831 42.6514 27.0897 41.9452 27.9576 41.9452H36.8444C37.7124 41.9452 38.419 42.6514 38.419 43.5198V43.8121L32.0386 50.1927L29.2214 47.3755C29.081 47.2352 28.8537 47.2352 28.7133 47.3755C28.573 47.5158 28.573 47.7432 28.7133 47.8835L31.7846 50.9548C31.9249 51.0951 32.1524 51.095 32.2926 50.9548L38.419 44.8281V52.4065Z" fill="#384B7D"/>
<path d="M76.4084 44.9979H43.6561C43.4576 44.9979 43.2969 45.1585 43.2969 45.3571C43.2969 45.5557 43.4576 45.7164 43.6561 45.7164H76.4084C76.6069 45.7164 76.7676 45.5557 76.7676 45.3571C76.7676 45.1585 76.6069 44.9979 76.4084 44.9979Z" fill="#384B7D"/>
<path d="M43.6561 50.9285H69.9536C70.1522 50.9285 70.3129 50.7678 70.3129 50.5692C70.3129 50.3706 70.1522 50.21 69.9536 50.21H43.6561C43.4576 50.21 43.2969 50.3706 43.2969 50.5692C43.2969 50.7678 43.4576 50.9285 43.6561 50.9285Z" fill="#384B7D"/>
<path d="M76.4084 64.8308H43.6561C43.4576 64.8308 43.2969 64.9915 43.2969 65.1901C43.2969 65.3886 43.4576 65.5493 43.6561 65.5493H76.4084C76.6069 65.5493 76.7676 65.3886 76.7676 65.1901C76.7676 64.9915 76.6069 64.8308 76.4084 64.8308Z" fill="#384B7D"/>
<path d="M69.9536 70.0428H43.6561C43.4576 70.0428 43.2969 70.2035 43.2969 70.4021C43.2969 70.6007 43.4576 70.7614 43.6561 70.7614H69.9536C70.1522 70.7614 70.3129 70.6007 70.3129 70.4021C70.3129 70.2035 70.1522 70.0428 69.9536 70.0428Z" fill="#384B7D"/>
<path d="M39.5178 22.8803L39.0984 23.2997C38.9131 22.2196 37.9763 21.3934 36.8444 21.3934H27.9576C26.6932 21.3934 25.6646 22.4221 25.6646 23.6869V32.5736C25.6646 33.8384 26.6932 34.8671 27.9576 34.8671H36.8444C38.1088 34.8671 39.1375 33.8384 39.1375 32.5736V24.2766L40.0258 23.3883C40.1661 23.248 40.1661 23.0206 40.0258 22.8803C39.8855 22.74 39.6581 22.74 39.5178 22.8803ZM38.419 32.5736C38.419 33.4419 37.7124 34.1485 36.8444 34.1485H27.9576C27.0897 34.1485 26.3831 33.4419 26.3831 32.5736V23.6869C26.3831 22.8185 27.0897 22.112 27.9576 22.112H36.8444C37.7124 22.112 38.419 22.8185 38.419 23.6869V23.9791L32.0386 30.3595L29.2214 27.5426C29.081 27.4023 28.8537 27.4023 28.7133 27.5426C28.573 27.6829 28.573 27.9103 28.7133 28.0506L31.7846 31.1215C31.8548 31.1917 31.9467 31.2268 32.0386 31.2268C32.1305 31.2268 32.2224 31.1917 32.2926 31.1215L38.419 24.9951V32.5736Z" fill="#384B7D"/>
<path d="M43.2969 25.5242C43.2969 25.7228 43.4576 25.8834 43.6561 25.8834H76.4084C76.6069 25.8834 76.7676 25.7228 76.7676 25.5242C76.7676 25.3256 76.6069 25.1649 76.4084 25.1649H43.6561C43.4576 25.1649 43.2969 25.3256 43.2969 25.5242Z" fill="#384B7D"/>
<path d="M43.6561 31.0955H69.9536C70.1522 31.0955 70.3129 30.9348 70.3129 30.7363C70.3129 30.5377 70.1522 30.377 69.9536 30.377H43.6561C43.4576 30.377 43.2969 30.5377 43.2969 30.7363C43.2969 30.9348 43.4576 31.0955 43.6561 31.0955Z" fill="#384B7D"/>
<path d="M26.6961 70.4846C26.6961 64.0049 21.4244 58.7336 14.9444 58.7336C8.46507 58.7336 3.19336 64.0049 3.19336 70.4846C3.19336 76.9642 8.46507 82.2359 14.9444 82.2359C21.4244 82.2359 26.6961 76.9642 26.6961 70.4846ZM3.91188 70.4846C3.91188 64.4014 8.86081 59.4521 14.9444 59.4521C21.0279 59.4521 25.9776 64.4014 25.9776 70.4846C25.9776 76.5681 21.0279 81.5174 14.9444 81.5174C8.86081 81.5174 3.91188 76.5681 3.91188 70.4846Z" fill="#384B7D"/>
<path d="M14.9442 62.797C15.1428 62.797 15.3035 62.6363 15.3035 62.4377V61.4161C15.3035 61.2175 15.1428 61.0568 14.9442 61.0568C14.7456 61.0568 14.585 61.2175 14.585 61.4161V62.4377C14.585 62.6363 14.7456 62.797 14.9442 62.797Z" fill="#384B7D"/>
<path d="M15.3035 79.5531V78.5314C15.3035 78.3329 15.1428 78.1722 14.9442 78.1722C14.7456 78.1722 14.585 78.3329 14.585 78.5314V79.5531C14.585 79.7517 14.7456 79.9123 14.9442 79.9123C15.1428 79.9123 15.3035 79.7517 15.3035 79.5531Z" fill="#384B7D"/>
<path d="M9.00062 65.0487C9.07079 65.1188 9.16271 65.1539 9.25463 65.1539C9.34655 65.1539 9.43847 65.1188 9.50863 65.0487C9.64897 64.9083 9.64897 64.681 9.50863 64.5406L8.78661 63.8183C8.64627 63.6779 8.41893 63.6779 8.27859 63.8183C8.13826 63.9586 8.13826 64.1859 8.27859 64.3263L9.00062 65.0487Z" fill="#384B7D"/>
<path d="M21.1032 77.1512C21.1733 77.2214 21.2652 77.2564 21.3572 77.2564C21.4491 77.2564 21.541 77.2214 21.6112 77.1512C21.7515 77.0109 21.7515 76.7835 21.6112 76.6432L20.8891 75.9208C20.7488 75.7805 20.5215 75.7805 20.3811 75.9208C20.2408 76.0611 20.2408 76.2885 20.3811 76.4288L21.1032 77.1512Z" fill="#384B7D"/>
<path d="M6.8975 70.1253H5.87586C5.67729 70.1253 5.5166 70.286 5.5166 70.4846C5.5166 70.6831 5.67729 70.8438 5.87586 70.8438H6.8975C7.09608 70.8438 7.25676 70.6831 7.25676 70.4846C7.25676 70.286 7.09608 70.1253 6.8975 70.1253Z" fill="#384B7D"/>
<path d="M22.9921 70.8438H24.0137C24.2123 70.8438 24.373 70.6831 24.373 70.4846C24.373 70.286 24.2123 70.1253 24.0137 70.1253H22.9921C22.7935 70.1253 22.6328 70.286 22.6328 70.4846C22.6328 70.6831 22.7935 70.8438 22.9921 70.8438Z" fill="#384B7D"/>
<path d="M9.00132 75.9205L8.27859 76.6432C8.13826 76.7836 8.13826 77.0109 8.27859 77.1512C8.34876 77.2214 8.44068 77.2565 8.5326 77.2565C8.62452 77.2565 8.71643 77.2214 8.78661 77.1512L9.50934 76.4285C9.64967 76.2882 9.64967 76.0608 9.50934 75.9205C9.369 75.7802 9.14166 75.7802 9.00132 75.9205Z" fill="#384B7D"/>
<path d="M20.8891 65.0487L21.6112 64.326C21.7515 64.1856 21.7515 63.9579 21.6112 63.818C21.4708 63.6776 21.2435 63.6776 21.1032 63.818L20.3811 64.5407C20.2408 64.681 20.2408 64.9087 20.3811 65.0487C20.5215 65.189 20.7488 65.189 20.8891 65.0487Z" fill="#384B7D"/>
<path d="M14.9443 71.9721C15.8761 71.9721 16.634 71.2185 16.634 70.292C16.634 69.8162 16.4347 69.3876 16.1171 69.0803L18.3678 65.4672C18.4723 65.2988 18.4211 65.0775 18.2527 64.9726C18.085 64.8694 17.8626 64.9185 17.7573 65.0876L15.5038 68.7053C15.3278 68.643 15.1414 68.6027 14.9443 68.6027C14.0132 68.6027 13.2554 69.3605 13.2554 70.292C13.2554 70.7649 13.4543 71.191 13.7714 71.4965L13.4392 72.0279C13.334 72.1963 13.3852 72.4181 13.5536 72.523C13.6125 72.5602 13.6785 72.5777 13.7437 72.5777C13.863 72.5777 13.9802 72.5181 14.0483 72.4089L14.3851 71.8701C14.561 71.932 14.7474 71.9721 14.9443 71.9721ZM14.9443 69.3212C15.1285 69.3212 15.2991 69.3756 15.4461 69.4651C15.448 69.4663 15.449 69.4684 15.4509 69.4696C15.4533 69.4711 15.4561 69.4704 15.4584 69.4718C15.7319 69.6437 15.9154 69.9458 15.9154 70.292C15.9154 70.8221 15.4797 71.2536 14.9443 71.2536C14.4089 71.2536 13.9739 70.8221 13.9739 70.292C13.9739 69.7566 14.4089 69.3212 14.9443 69.3212Z" fill="#384B7D"/>
</svg>
