<svg width="94" height="94" viewBox="0 0 94 94" fill="none" xmlns="http://www.w3.org/2000/svg">
<path d="M46.9991 89.1044C46.0591 89.1044 45.1191 88.987 44.2183 88.7128C23.8908 83.112 9.16406 64.116 9.16406 43.5143V26.3201C9.16406 21.9334 12.3366 17.1945 16.4099 15.5103L38.2258 6.58017C43.9049 4.26934 50.1324 4.26934 55.7724 6.58017L77.5882 15.5103C81.6616 17.1945 84.8341 21.9334 84.8341 26.3201V43.5143C84.8341 64.0768 70.0682 83.0728 49.7799 88.7128C48.879 88.987 47.9391 89.1044 46.9991 89.1044ZM46.9991 10.771C44.7666 10.771 42.5732 11.2019 40.4582 12.0636L18.6424 20.9935C16.7624 21.7768 15.0391 24.3226 15.0391 26.3593V43.5535C15.0391 61.531 27.9641 78.1378 45.7849 83.0728C46.5683 83.3078 47.4299 83.3078 48.2132 83.0728C66.0341 78.1378 78.9591 61.531 78.9591 43.5535V26.3593C78.9591 24.3226 77.2357 21.7768 75.3557 20.9935L53.54 12.0636C51.425 11.2019 49.2316 10.771 46.9991 10.771Z" fill="#4FE967"/>
<path d="M47.0003 51.8959C41.047 51.8959 36.2295 47.0784 36.2295 41.125C36.2295 35.1717 41.047 30.3542 47.0003 30.3542C52.9537 30.3542 57.7712 35.1717 57.7712 41.125C57.7712 47.0784 52.9537 51.8959 47.0003 51.8959ZM47.0003 36.2292C44.2978 36.2292 42.1045 38.4225 42.1045 41.125C42.1045 43.8275 44.2978 46.0209 47.0003 46.0209C49.7028 46.0209 51.8962 43.8275 51.8962 41.125C51.8962 38.4225 49.7028 36.2292 47.0003 36.2292Z" fill="#4FE967"/>
<path d="M47 63.6458C45.3942 63.6458 44.0625 62.3141 44.0625 60.7083V48.9583C44.0625 47.3525 45.3942 46.0208 47 46.0208C48.6058 46.0208 49.9375 47.3525 49.9375 48.9583V60.7083C49.9375 62.3141 48.6058 63.6458 47 63.6458Z" fill="#4FE967"/>
</svg>
