<svg width="34" height="34" viewBox="0 0 34 34" fill="none" xmlns="http://www.w3.org/2000/svg">
<path d="M29.7502 9.53417C29.7219 9.53417 29.6794 9.53417 29.6369 9.53417C22.1427 8.78334 14.6627 8.50001 7.25352 9.25084L4.36352 9.53417C3.76852 9.59084 3.24435 9.16584 3.18769 8.57084C3.13102 7.97584 3.55602 7.46584 4.13685 7.40917L7.02685 7.12584C14.5635 6.36084 22.1994 6.65834 29.8494 7.40917C30.4302 7.46584 30.8552 7.99001 30.7985 8.57084C30.756 9.12334 30.2885 9.53417 29.7502 9.53417Z" fill="#292D32"/>
<path d="M12.0421 8.10331C11.9854 8.10331 11.9287 8.10331 11.8579 8.08915C11.2912 7.98998 10.8946 7.43748 10.9937 6.87081L11.3054 5.01498C11.5321 3.65498 11.8437 1.77081 15.1446 1.77081H18.8562C22.1712 1.77081 22.4829 3.72581 22.6954 5.02915L23.0071 6.87081C23.1062 7.45165 22.7096 8.00415 22.1429 8.08915C21.5621 8.18831 21.0096 7.79165 20.9246 7.22498L20.6129 5.38331C20.4146 4.15081 20.3721 3.90998 18.8704 3.90998H15.1587C13.6571 3.90998 13.6287 4.10831 13.4162 5.36915L13.0904 7.21081C13.0054 7.73498 12.5521 8.10331 12.0421 8.10331Z" fill="#292D32"/>
<path d="M21.5474 32.2292H12.4524C7.50823 32.2292 7.3099 29.495 7.15406 27.285L6.23323 13.0192C6.19073 12.4383 6.64406 11.9283 7.2249 11.8858C7.8199 11.8575 8.31573 12.2967 8.35823 12.8775L9.27906 27.1433C9.4349 29.2967 9.49156 30.1042 12.4524 30.1042H21.5474C24.5224 30.1042 24.5791 29.2967 24.7207 27.1433L25.6416 12.8775C25.6841 12.2967 26.1941 11.8575 26.7749 11.8858C27.3557 11.9283 27.8091 12.4242 27.7666 13.0192L26.8457 27.285C26.6899 29.495 26.4916 32.2292 21.5474 32.2292Z" fill="#292D32"/>
</svg>
