<svg width="25" height="39" viewBox="0 0 25 39" fill="none" xmlns="http://www.w3.org/2000/svg">
<path d="M12.5001 37.4554C11.4442 37.4554 10.5881 36.5994 10.5881 35.5434V22.1454H14.4121V35.5433C14.4121 36.5994 13.5561 37.4554 12.5001 37.4554Z" fill="#E19974"/>
<path d="M14.4123 22.1456V35.5437C14.4123 36.5997 13.556 37.4549 12.5 37.4549C12.1548 37.4549 11.8312 37.3638 11.5515 37.203C12.1261 36.8742 12.5143 36.2545 12.5143 35.5438V22.1457H14.4123V22.1456Z" fill="#DC8758"/>
<path d="M12.4999 24.2319C18.9792 24.2319 24.2317 18.9793 24.2317 12.5C24.2317 6.02071 18.9792 0.768188 12.4999 0.768188C6.02059 0.768188 0.768066 6.02071 0.768066 12.5C0.768066 18.9793 6.02059 24.2319 12.4999 24.2319Z" fill="#E75244"/>
<path d="M24.2317 12.5003C24.2317 18.9797 18.9794 24.232 12.4999 24.232C10.9738 24.232 9.51638 23.9411 8.17871 23.4106C8.91409 23.556 9.67411 23.6319 10.4515 23.6319C16.931 23.6319 22.1833 18.3796 22.1833 11.9001C22.1833 6.94688 19.1137 2.71066 14.7729 0.989929C20.1644 2.04687 24.2317 6.79832 24.2317 12.5003Z" fill="#A4271B"/>
<path d="M22.472 4.96171C22.2159 4.62345 21.7342 4.55686 21.3958 4.81295C21.0577 5.06904 20.9911 5.55087 21.247 5.88903C22.6971 7.80435 23.4636 10.0904 23.4636 12.5C23.4636 18.5454 18.5453 23.4637 12.5 23.4637C6.45467 23.4637 1.53633 18.5454 1.53633 12.5C1.53633 6.45457 6.45467 1.53633 12.5 1.53633C14.8019 1.53633 17.0047 2.24157 18.8704 3.57588C19.2154 3.8225 19.6951 3.74308 19.9422 3.39799C20.1889 3.05291 20.1093 2.57301 19.7642 2.32629C17.6363 0.804415 15.1244 0 12.5 0C5.60748 0 0 5.60749 0 12.5C0 18.4727 4.21106 23.4796 9.81987 24.7098V35.5433C9.81987 37.0212 11.0221 38.2235 12.5 38.2235C13.9779 38.2235 15.1801 37.0212 15.1801 35.5433V24.7099C20.7889 23.4797 25 18.4728 25 12.5001C25 9.75287 24.1258 7.14616 22.472 4.96171ZM13.6438 35.5434C13.6438 36.1741 13.1307 36.6872 12.5 36.6872C11.8693 36.6872 11.3562 36.1741 11.3562 35.5434V24.9473C11.7331 24.9816 12.1144 25.0001 12.5 25.0001C12.8856 25.0001 13.2669 24.9816 13.6438 24.9473V35.5434Z" fill="black"/>
<path d="M17.2206 7.44838C16.9105 7.15868 16.4244 7.17518 16.1348 7.48524L12.5 11.375L8.86513 7.48524C8.57554 7.17528 8.08953 7.15879 7.77937 7.44838C7.46942 7.73807 7.45302 8.22418 7.74261 8.53413L11.4486 12.5L7.74261 16.466C7.45292 16.7759 7.46931 17.262 7.77937 17.5517C7.92753 17.6901 8.1158 17.7586 8.30366 17.7586C8.50904 17.7586 8.71392 17.6768 8.86513 17.515L12.5 13.6252L16.1348 17.515C16.286 17.6769 16.4909 17.7586 16.6963 17.7586C16.8841 17.7586 17.0725 17.6901 17.2206 17.5517C17.5305 17.262 17.5469 16.7759 17.2572 16.466L13.5512 12.5L17.2572 8.53413C17.547 8.22418 17.5306 7.73807 17.2206 7.44838Z" fill="black"/>
</svg>
